<svg width="1440" height="900" viewBox="0 0 1440 1019" fill="none" xmlns="http://www.w3.org/2000/svg">
<g filter="url(#filter0_f_128_2)">
<ellipse cx="1352.67" cy="447" rx="362" ry="322" fill="url(#paint0_linear_128_2)" fill-opacity="0.7"/>
</g>
<g filter="url(#filter1_f_128_2)">
<path d="M857.161 217.577C949.342 185.861 910.395 188.331 928.557 174.355L952.669 57.3732L903.506 -5H783.885L694.013 16.2224L678.669 95.4183L720.317 206.189C750.066 213.436 787.956 241.387 857.161 217.577Z" fill="url(#paint1_linear_128_2)" fill-opacity="0.9"/>
</g>
<g filter="url(#filter2_f_128_2)">
<path d="M331.543 511.233C606.774 375.161 486.269 397.726 537.514 346.224L567.557 -36.6823L390.164 -217.482L17.1215 -172.425L-254.958 -70.755L-272.242 188.1L-99.606 526.388C-4.03654 538.34 124.915 613.388 331.543 511.233Z" fill="url(#paint2_linear_128_2)"/>
</g>
<defs>
<filter id="filter0_f_128_2" x="740.669" y="-125" width="1224" height="1144" filterUnits="userSpaceOnUse" color-interpolation-filters="sRGB">
<feFlood flood-opacity="0" result="BackgroundImageFix"/>
<feBlend mode="normal" in="SourceGraphic" in2="BackgroundImageFix" result="shape"/>
<feGaussianBlur stdDeviation="125" result="effect1_foregroundBlur_128_2"/>
</filter>
<filter id="filter1_f_128_2" x="478.669" y="-205" width="674" height="632" filterUnits="userSpaceOnUse" color-interpolation-filters="sRGB">
<feFlood flood-opacity="0" result="BackgroundImageFix"/>
<feBlend mode="normal" in="SourceGraphic" in2="BackgroundImageFix" result="shape"/>
<feGaussianBlur stdDeviation="100" result="effect1_foregroundBlur_128_2"/>
</filter>
<filter id="filter2_f_128_2" x="-472.242" y="-417.482" width="1239.8" height="1181.63" filterUnits="userSpaceOnUse" color-interpolation-filters="sRGB">
<feFlood flood-opacity="0" result="BackgroundImageFix"/>
<feBlend mode="normal" in="SourceGraphic" in2="BackgroundImageFix" result="shape"/>
<feGaussianBlur stdDeviation="100" result="effect1_foregroundBlur_128_2"/>
</filter>
<linearGradient id="paint0_linear_128_2" x1="1352.67" y1="125" x2="1352.67" y2="769" gradientUnits="userSpaceOnUse">
<stop stop-color="#311F9E"/>
<stop offset="1" stop-color="#8B0064" stop-opacity="0.1"/>
</linearGradient>
<linearGradient id="paint1_linear_128_2" x1="815.669" y1="-5" x2="815.669" y2="227" gradientUnits="userSpaceOnUse">
<stop stop-color="#210249"/>
<stop offset="1" stop-color="#81001F" stop-opacity="0.17"/>
</linearGradient>
<linearGradient id="paint2_linear_128_2" x1="116.242" y1="-184.397" x2="205.787" y2="556.975" gradientUnits="userSpaceOnUse">
<stop stop-color="#210249"/>
<stop offset="1" stop-color="#81001F" stop-opacity="0.17"/>
</linearGradient>
</defs>
</svg>
