<svg width="568" height="346" viewBox="0 0 568 346" fill="none" xmlns="http://www.w3.org/2000/svg">
<path d="M340.8 317.4C357.4 317.4 371 312 381.2 301.2C391.4 290.2 396.6 275 396.6 255.2V175H387.4V255.2C387.4 288.8 369.6 308.6 340.8 308.6C311.8 308.6 294 288.8 294 255.2V175H284.8V255.2C284.8 275 290 290.4 300.2 301.2C310.4 312 324 317.4 340.8 317.4ZM433.814 315L485.214 246.4L536.614 315H548.014L490.814 238.8L538.614 175H527.614L485.414 231.4L443.214 175H432.014L479.614 239L423.014 315H433.814Z" fill="url(#paint0_linear_146_2)"/>
<path d="M23.84 286.96C30.64 286.96 35.84 284.4 39.6 279.28V286H43.2V230H39.6V254.64C35.84 249.44 30.56 246.88 23.84 246.88C18.08 246.88 13.36 248.88 9.76 252.8C6.16 256.72 4.4 261.44 4.4 266.96C4.4 272.48 6.16 277.2 9.76 281.12C13.36 285.04 18.08 286.96 23.84 286.96ZM24.48 283.6C19.76 283.6 15.84 282 12.72 278.88C9.6 275.68 8.08 271.68 8.08 266.96C8.08 262.24 9.6 258.24 12.72 255.04C15.84 251.84 19.76 250.24 24.48 250.24C30.96 250.24 37.04 254.24 39.6 259.76V274.16C37.12 279.68 31.12 283.6 24.48 283.6ZM75.6688 286.96C81.1888 286.96 85.4288 285.84 88.4688 283.52V280C84.8688 282.4 80.7088 283.6 76.1488 283.6C71.0287 283.6 66.7888 282.08 63.5088 279.12C60.2288 276.16 58.5488 272.24 58.4688 267.44H91.4288V266.24C91.4288 262.08 90.2288 257.92 87.6688 253.84C85.1888 249.68 80.2288 246.88 73.8288 246.88C68.2288 246.88 63.6688 248.8 60.1488 252.64C56.6288 256.4 54.8688 261.2 54.8688 266.96C54.8688 272.8 56.8688 277.6 60.7888 281.36C64.7088 285.12 69.6688 286.96 75.6688 286.96ZM58.5488 264.32C58.7888 260.64 60.3088 257.36 62.9488 254.56C65.6688 251.68 69.2688 250.24 73.7488 250.24C83.9888 250.24 87.8288 258.8 87.8288 264.32H58.5488ZM115.379 286.96C119.939 286.96 123.699 286 126.659 284.08C129.699 282.08 131.219 279.44 131.219 276.16C131.219 273.2 129.699 270.8 128.099 269.44C127.379 268.72 126.179 268.08 124.499 267.44C122.819 266.8 121.539 266.32 120.579 266.08L116.099 264.96C112.899 264.24 112.019 264 109.539 263.04C108.339 262.56 107.379 262.08 106.819 261.68C105.619 260.72 104.499 259.12 104.499 257.2C104.499 253.04 108.339 250.24 115.779 250.24C120.579 250.24 125.059 251.52 129.299 254.08V250.4C125.699 248.08 121.139 246.88 115.539 246.88C106.179 246.88 100.819 250.88 100.819 257.2C100.819 261.36 103.219 263.68 106.659 265.44C109.299 266.64 111.219 267.12 114.499 268L116.099 268.4C119.619 269.36 121.699 269.84 124.019 271.04C126.339 272.24 127.539 273.84 127.539 276.08C127.539 280.64 122.739 283.6 115.299 283.6C109.459 283.6 104.179 282.08 99.6194 278.96V282.88C102.739 285.12 108.979 286.96 115.379 286.96ZM147.779 286V247.84H144.179V286H147.779ZM148.099 236.48C150.979 233.84 146.419 229.28 143.779 232.16C140.899 234.8 145.459 239.36 148.099 236.48ZM195.694 254.48C192.094 249.44 186.814 246.88 180.014 246.88C174.254 246.88 169.534 248.8 165.934 252.72C162.334 256.64 160.494 261.28 160.494 266.72C160.494 272.16 162.334 276.88 165.934 280.8C169.534 284.72 174.254 286.64 180.014 286.64C186.814 286.64 192.094 284.08 195.694 279.04V284.32C195.694 294 189.054 298.96 178.894 298.96C173.614 298.96 168.814 297.68 164.414 295.04V298.72C168.814 301.12 173.694 302.32 179.134 302.32C185.054 302.32 189.854 300.8 193.614 297.68C197.374 294.56 199.294 290.16 199.294 284.32V247.84H195.694V254.48ZM195.694 273.92C193.214 279.44 187.214 283.28 180.734 283.28C176.014 283.28 172.014 281.68 168.894 278.56C165.774 275.44 164.174 271.44 164.174 266.72C164.174 262 165.774 258.08 168.894 254.96C172.014 251.84 176.014 250.24 180.734 250.24C187.214 250.24 193.214 254.08 195.694 259.6V273.92ZM217.284 259.12C218.724 256.8 220.884 254.72 223.764 252.96C226.644 251.12 229.524 250.24 232.484 250.24C235.444 250.24 237.844 250.88 240.404 252.56C243.044 254.24 244.724 258.08 244.724 263.52V286H248.324V262.8C248.324 252.64 243.204 246.88 233.524 246.88C226.724 246.88 220.724 250.32 217.284 254.48V247.84H213.684V286H217.284V259.12Z" fill="url(#paint1_linear_146_2)"/>
<path d="M187.8 183.4C204.4 183.4 218 178 228.2 167.2C238.4 156.2 243.6 141 243.6 121.2V41H234.4V121.2C234.4 154.8 216.6 174.6 187.8 174.6C158.8 174.6 141 154.8 141 121.2V41H131.8V121.2C131.8 141 137 156.4 147.2 167.2C157.4 178 171 183.4 187.8 183.4ZM294.014 181V41H284.814V181H294.014Z" fill="#FFF8F8"/>
<defs>
<linearGradient id="paint0_linear_146_2" x1="402.5" y1="134" x2="400.5" y2="454.5" gradientUnits="userSpaceOnUse">
<stop offset="0.20778" stop-color="white"/>
<stop offset="1" stop-color="white" stop-opacity="0"/>
</linearGradient>
<linearGradient id="paint1_linear_146_2" x1="138.5" y1="213" x2="139" y2="362" gradientUnits="userSpaceOnUse">
<stop stop-color="white" stop-opacity="0.98"/>
<stop offset="1" stop-color="white" stop-opacity="0"/>
</linearGradient>
</defs>
</svg>
