<svg width="685" height="405" viewBox="0 0 685 405" fill="none" xmlns="http://www.w3.org/2000/svg">
<path d="M334.8 308.4C351.4 308.4 365 303 375.2 292.2C385.4 281.2 390.6 266 390.6 246.2V166H381.4V246.2C381.4 279.8 363.6 299.6 334.8 299.6C305.8 299.6 288 279.8 288 246.2V166H278.8V246.2C278.8 266 284 281.4 294.2 292.2C304.4 303 318 308.4 334.8 308.4ZM427.814 306L479.214 237.4L530.614 306H542.014L484.814 229.8L532.614 166H521.614L479.414 222.4L437.214 166H426.014L473.614 230L417.014 306H427.814Z" fill="url(#paint0_linear_146_2)"/>
<path d="M23.84 280.96C30.64 280.96 35.84 278.4 39.6 273.28V280H43.2V224H39.6V248.64C35.84 243.44 30.56 240.88 23.84 240.88C18.08 240.88 13.36 242.88 9.76 246.8C6.16 250.72 4.4 255.44 4.4 260.96C4.4 266.48 6.16 271.2 9.76 275.12C13.36 279.04 18.08 280.96 23.84 280.96ZM24.48 277.6C19.76 277.6 15.84 276 12.72 272.88C9.6 269.68 8.08 265.68 8.08 260.96C8.08 256.24 9.6 252.24 12.72 249.04C15.84 245.84 19.76 244.24 24.48 244.24C30.96 244.24 37.04 248.24 39.6 253.76V268.16C37.12 273.68 31.12 277.6 24.48 277.6ZM75.6688 280.96C81.1888 280.96 85.4288 279.84 88.4688 277.52V274C84.8688 276.4 80.7088 277.6 76.1488 277.6C71.0287 277.6 66.7888 276.08 63.5088 273.12C60.2288 270.16 58.5488 266.24 58.4688 261.44H91.4288V260.24C91.4288 256.08 90.2288 251.92 87.6688 247.84C85.1888 243.68 80.2288 240.88 73.8288 240.88C68.2288 240.88 63.6688 242.8 60.1488 246.64C56.6288 250.4 54.8688 255.2 54.8688 260.96C54.8688 266.8 56.8688 271.6 60.7888 275.36C64.7088 279.12 69.6688 280.96 75.6688 280.96ZM58.5488 258.32C58.7888 254.64 60.3088 251.36 62.9488 248.56C65.6688 245.68 69.2688 244.24 73.7488 244.24C83.9888 244.24 87.8288 252.8 87.8288 258.32H58.5488ZM115.379 280.96C119.939 280.96 123.699 280 126.659 278.08C129.699 276.08 131.219 273.44 131.219 270.16C131.219 267.2 129.699 264.8 128.099 263.44C127.379 262.72 126.179 262.08 124.499 261.44C122.819 260.8 121.539 260.32 120.579 260.08L116.099 258.96C112.899 258.24 112.019 258 109.539 257.04C108.339 256.56 107.379 256.08 106.819 255.68C105.619 254.72 104.499 253.12 104.499 251.2C104.499 247.04 108.339 244.24 115.779 244.24C120.579 244.24 125.059 245.52 129.299 248.08V244.4C125.699 242.08 121.139 240.88 115.539 240.88C106.179 240.88 100.819 244.88 100.819 251.2C100.819 255.36 103.219 257.68 106.659 259.44C109.299 260.64 111.219 261.12 114.499 262L116.099 262.4C119.619 263.36 121.699 263.84 124.019 265.04C126.339 266.24 127.539 267.84 127.539 270.08C127.539 274.64 122.739 277.6 115.299 277.6C109.459 277.6 104.179 276.08 99.6194 272.96V276.88C102.739 279.12 108.979 280.96 115.379 280.96ZM147.779 280V241.84H144.179V280H147.779ZM148.099 230.48C150.979 227.84 146.419 223.28 143.779 226.16C140.899 228.8 145.459 233.36 148.099 230.48ZM195.694 248.48C192.094 243.44 186.814 240.88 180.014 240.88C174.254 240.88 169.534 242.8 165.934 246.72C162.334 250.64 160.494 255.28 160.494 260.72C160.494 266.16 162.334 270.88 165.934 274.8C169.534 278.72 174.254 280.64 180.014 280.64C186.814 280.64 192.094 278.08 195.694 273.04V278.32C195.694 288 189.054 292.96 178.894 292.96C173.614 292.96 168.814 291.68 164.414 289.04V292.72C168.814 295.12 173.694 296.32 179.134 296.32C185.054 296.32 189.854 294.8 193.614 291.68C197.374 288.56 199.294 284.16 199.294 278.32V241.84H195.694V248.48ZM195.694 267.92C193.214 273.44 187.214 277.28 180.734 277.28C176.014 277.28 172.014 275.68 168.894 272.56C165.774 269.44 164.174 265.44 164.174 260.72C164.174 256 165.774 252.08 168.894 248.96C172.014 245.84 176.014 244.24 180.734 244.24C187.214 244.24 193.214 248.08 195.694 253.6V267.92ZM217.284 253.12C218.724 250.8 220.884 248.72 223.764 246.96C226.644 245.12 229.524 244.24 232.484 244.24C235.444 244.24 237.844 244.88 240.404 246.56C243.044 248.24 244.724 252.08 244.724 257.52V280H248.324V256.8C248.324 246.64 243.204 240.88 233.524 240.88C226.724 240.88 220.724 244.32 217.284 248.48V241.84H213.684V280H217.284V253.12Z" fill="url(#paint1_linear_146_2)"/>
<path d="M181.8 183.4C198.4 183.4 212 178 222.2 167.2C232.4 156.2 237.6 141 237.6 121.2V41H228.4V121.2C228.4 154.8 210.6 174.6 181.8 174.6C152.8 174.6 135 154.8 135 121.2V41H125.8V121.2C125.8 141 131 156.4 141.2 167.2C151.4 178 165 183.4 181.8 183.4ZM288.014 181V41H278.814V181H288.014Z" fill="#FFF8F8"/>
<defs>
<linearGradient id="paint0_linear_146_2" x1="472.5" y1="125" x2="472.5" y2="405" gradientUnits="userSpaceOnUse">
<stop offset="0.20778" stop-color="white" stop-opacity="0.98"/>
<stop offset="1" stop-color="white" stop-opacity="0"/>
</linearGradient>
<linearGradient id="paint1_linear_146_2" x1="138.5" y1="207" x2="139" y2="356" gradientUnits="userSpaceOnUse">
<stop stop-color="white" stop-opacity="0.98"/>
<stop offset="1" stop-color="white" stop-opacity="0"/>
</linearGradient>
</defs>
</svg>
