<svg width="551" height="604" viewBox="0 0 551 604" fill="none" xmlns="http://www.w3.org/2000/svg">
<g filter="url(#filter0_f_211_2)">
<path d="M-657.193 19.1635C-611.467 -66.2663 -547.882 -158.021 -340.479 -197.789C-111.062 -241.779 11.1312 -420.97 175.386 -508.669" stroke="url(#paint0_angular_211_2)" stroke-opacity="0.4" stroke-width="3"/>
<path d="M212.655 -471.963C153.932 -386.347 143.775 -311.5 -39.0101 -229.743C-158.279 -176.396 -460.396 -83.8309 -604.053 18.9563" stroke="url(#paint1_angular_211_2)" stroke-opacity="0.4" stroke-width="3"/>
<path d="M-652.073 16.0424C-603.135 -68.0143 -536.718 -157.553 -329.807 -193.162C-101.632 -232 26.7846 -409.533 192.914 -493.528" stroke="url(#paint2_angular_211_2)" stroke-opacity="0.4" stroke-width="3"/>
<path d="M-646.987 12.8479C-594.932 -69.728 -525.816 -156.957 -319.504 -188.415C-92.7173 -222.139 41.8352 -397.827 209.699 -478.05" stroke="url(#paint3_angular_211_2)" stroke-opacity="0.4" stroke-width="3"/>
<path d="M-641.932 9.57887C-586.859 -71.411 -515.179 -156.242 -309.572 -183.556C-84.3164 -212.207 56.2775 -385.864 225.734 -462.252" stroke="url(#paint4_angular_211_2)" stroke-opacity="0.4" stroke-width="3"/>
<path d="M-636.906 6.23396C-578.916 -73.0672 -504.811 -155.414 -300.011 -178.597C-76.427 -202.218 70.1073 -373.659 241.015 -446.153" stroke="url(#paint5_angular_211_2)" stroke-opacity="0.4" stroke-width="3"/>
<path d="M-631.904 2.81224C-571.104 -74.7001 -494.714 -154.482 -290.824 -173.546C-69.0465 -192.185 83.3208 -361.227 255.535 -429.768" stroke="url(#paint6_angular_211_2)" stroke-opacity="0.4" stroke-width="3"/>
<path d="M-626.926 -0.687647C-563.425 -76.3138 -484.89 -153.454 -282.011 -168.413C-62.1735 -182.12 95.9131 -348.581 269.29 -413.117" stroke="url(#paint7_angular_211_2)" stroke-opacity="0.4" stroke-width="3"/>
<path d="M-537.927 -77.8539C-447.076 -106.588 -355.172 -127.896 -185.956 -73.4362C-19.4707 -10.1252 215.505 -101.668 384.739 -88.935" stroke="url(#paint8_angular_211_2)" stroke-opacity="0.4" stroke-width="3"/>
<path d="M-532.836 -82.951C-441.745 -108.593 -350.492 -126.626 -183.904 -68.6498C-21.1584 -1.8501 216.317 -87.8558 383.949 -70.7717" stroke="url(#paint9_angular_211_2)" stroke-opacity="0.4" stroke-width="3"/>
<path d="M-527.71 -88.1333C-436.519 -110.658 -346.057 -125.427 -182.166 -63.9803C-23.2152 6.21434 216.546 -74.1375 382.437 -52.72" stroke="url(#paint10_angular_211_2)" stroke-opacity="0.4" stroke-width="3"/>
<path d="M-522.548 -93.4004C-431.395 -112.788 -341.861 -124.309 -180.735 -59.437C-25.6298 14.0579 216.199 -60.5276 380.212 -34.7983" stroke="url(#paint11_angular_211_2)" stroke-opacity="0.4" stroke-width="3"/>
<path d="M-517.346 -98.7517C-426.37 -114.985 -337.899 -123.28 -179.603 -55.0292C-28.3911 21.6703 215.283 -47.0415 377.284 -17.0258" stroke="url(#paint12_angular_211_2)" stroke-opacity="0.4" stroke-width="3"/>
<path d="M-512.102 -104.187C-421.44 -117.254 -334.167 -122.348 -178.764 -50.7661C-31.4891 29.0416 213.806 -33.6944 373.662 0.579157" stroke="url(#paint13_angular_211_2)" stroke-opacity="0.4" stroke-width="3"/>
<path d="M-506.813 -109.705C-416.604 -119.598 -330.658 -121.521 -178.211 -46.6568C-34.9118 36.162 211.777 -20.5012 369.357 17.9979" stroke="url(#paint14_angular_211_2)" stroke-opacity="0.4" stroke-width="3"/>
<path d="M-501.477 -115.307C-411.856 -122.021 -327.366 -120.807 -177.934 -42.7099C-38.6473 43.0222 209.206 -7.47651 364.38 35.2123" stroke="url(#paint15_angular_211_2)" stroke-opacity="0.4" stroke-width="3"/>
<path d="M-496.09 -120.989C-407.194 -124.527 -324.284 -120.213 -177.928 -38.934C-42.6845 49.6133 206.101 5.36503 358.742 52.2043" stroke="url(#paint16_angular_211_2)" stroke-opacity="0.4" stroke-width="3"/>
<path d="M-490.652 -126.753C-402.614 -127.118 -321.408 -119.748 -178.183 -35.3379C-47.0114 55.9262 202.472 18.0088 352.455 68.956" stroke="url(#paint17_angular_211_2)" stroke-opacity="0.4" stroke-width="3"/>
<path d="M-485.159 -132.598C-398.112 -129.798 -318.728 -119.418 -178.69 -31.9299C-51.6155 61.952 198.329 30.4403 345.533 85.4493" stroke="url(#paint18_angular_211_2)" stroke-opacity="0.4" stroke-width="3"/>
<path d="M-479.609 -138.521C-393.684 -132.57 -316.238 -119.231 -179.442 -28.7178C-56.4844 67.6831 193.684 42.6461 337.988 101.668" stroke="url(#paint19_angular_211_2)" stroke-opacity="0.4" stroke-width="3"/>
<path d="M-473.999 -144.522C-389.326 -135.438 -313.931 -119.194 -180.429 -25.7098C-61.6053 73.111 188.548 54.6115 329.834 117.593" stroke="url(#paint20_angular_211_2)" stroke-opacity="0.4" stroke-width="3"/>
<path d="M-468.327 -150.601C-385.034 -138.405 -311.798 -119.314 -181.641 -22.9136C-66.9653 78.2282 182.932 66.3234 321.085 133.208" stroke="url(#paint21_angular_211_2)" stroke-opacity="0.4" stroke-width="3"/>
<path d="M-462.591 -156.756C-380.803 -141.473 -309.833 -119.598 -183.069 -20.337C-72.5521 83.0269 176.848 77.7677 311.756 148.498" stroke="url(#paint22_angular_211_2)" stroke-opacity="0.4" stroke-width="3"/>
<path d="M-456.788 -162.985C-376.631 -144.645 -308.027 -120.052 -184.704 -17.9868C-78.3522 87.5006 170.308 88.9318 301.862 163.444" stroke="url(#paint23_angular_211_2)" stroke-opacity="0.4" stroke-width="3"/>
<path d="M-450.917 -169.289C-372.51 -147.925 -306.371 -120.683 -186.536 -15.8707C-84.352 91.642 163.325 99.8022 291.419 178.032" stroke="url(#paint24_angular_211_2)" stroke-opacity="0.4" stroke-width="3"/>
<path d="M-444.976 -175.664C-368.439 -151.314 -304.858 -121.497 -188.554 -13.9951C-90.5389 95.4448 155.913 110.366 280.442 192.244" stroke="url(#paint25_angular_211_2)" stroke-opacity="0.4" stroke-width="3"/>
<path d="M-438.962 -182.11C-364.411 -154.817 -303.478 -122.499 -190.748 -12.367C-96.8985 98.9028 148.084 120.612 268.949 206.067" stroke="url(#paint26_angular_211_2)" stroke-opacity="0.4" stroke-width="3"/>
<path d="M-432.875 -188.626C-360.423 -158.434 -302.224 -123.697 -193.109 -10.9928C-103.419 102.01 139.852 130.526 256.954 219.484" stroke="url(#paint27_angular_211_2)" stroke-opacity="0.4" stroke-width="3"/>
<path d="M-426.71 -195.21C-356.469 -162.168 -301.084 -125.095 -195.624 -9.87838C-110.084 104.762 131.232 140.097 244.478 232.481" stroke="url(#paint28_angular_211_2)" stroke-opacity="0.4" stroke-width="3"/>
<path d="M-420.467 -201.86C-352.544 -166.022 -300.051 -126.698 -198.284 -9.02982C-116.881 107.152 122.238 149.314 231.537 245.044" stroke="url(#paint29_angular_211_2)" stroke-opacity="0.4" stroke-width="3"/>
<path d="M-414.145 -208.575C-348.645 -169.998 -299.115 -128.512 -201.077 -8.45305C-123.798 109.175 112.883 158.164 218.148 257.158" stroke="url(#paint30_angular_211_2)" stroke-opacity="0.4" stroke-width="3"/>
<path d="M-407.74 -215.353C-344.764 -174.097 -298.266 -130.541 -203.992 -8.15273C-130.818 110.829 103.185 166.639 204.331 268.81" stroke="url(#paint31_angular_211_2)" stroke-opacity="0.4" stroke-width="3"/>
<path d="M-401.252 -222.192C-340.899 -178.322 -297.495 -132.791 -207.019 -8.13495C-137.929 112.108 93.1575 174.724 190.104 279.986" stroke="url(#paint32_angular_211_2)" stroke-opacity="0.4" stroke-width="3"/>
<path d="M-394.679 -229.091C-337.043 -182.674 -296.791 -135.265 -210.146 -8.40386C-145.116 113.008 82.8158 182.412 175.486 290.673" stroke="url(#paint33_angular_211_2)" stroke-opacity="0.4" stroke-width="3"/>
<path d="M-388.02 -236.048C-333.191 -187.155 -296.146 -137.967 -213.361 -8.96414C-152.366 113.526 72.1767 189.692 160.498 300.86" stroke="url(#paint34_angular_211_2)" stroke-opacity="0.4" stroke-width="3"/>
<path d="M-381.273 -243.061C-329.339 -191.766 -295.548 -140.901 -216.653 -9.82029C-159.664 113.659 61.2552 196.553 145.157 310.534" stroke="url(#paint35_angular_211_2)" stroke-opacity="0.4" stroke-width="3"/>
<path d="M-374.436 -250.128C-325.481 -196.509 -294.989 -144.071 -220.011 -10.976C-166.998 113.404 50.0679 202.988 129.485 319.683" stroke="url(#paint36_angular_211_2)" stroke-opacity="0.4" stroke-width="3"/>
<path d="M-367.509 -257.247C-321.612 -201.384 -294.457 -147.48 -223.422 -12.4352C-174.351 112.76 38.6317 208.986 113.501 328.296" stroke="url(#paint37_angular_211_2)" stroke-opacity="0.4" stroke-width="3"/>
<path d="M-360.491 -264.417C-317.727 -206.394 -293.943 -151.131 -226.876 -14.2012C-181.712 111.723 26.9625 214.54 97.2268 336.363" stroke="url(#paint38_angular_211_2)" stroke-opacity="0.4" stroke-width="3"/>
<path d="M-353.38 -271.634C-313.82 -211.538 -293.436 -155.027 -230.36 -16.2773C-189.065 110.292 15.0779 219.641 80.6824 343.873" stroke="url(#paint39_angular_211_2)" stroke-opacity="0.4" stroke-width="3"/>
<path d="M-346.175 -278.897C-309.887 -216.818 -292.926 -159.17 -233.862 -18.6661C-196.399 108.465 2.99355 224.28 63.8877 350.817" stroke="url(#paint40_angular_211_2)" stroke-opacity="0.4" stroke-width="3"/>
<path d="M-338.875 -286.205C-305.921 -222.235 -292.402 -163.561 -237.371 -21.3701C-203.696 106.243 -9.27158 228.451 46.8659 357.185" stroke="url(#paint41_angular_211_2)" stroke-opacity="0.4" stroke-width="3"/>
<path d="M-331.479 -293.553C-301.917 -227.787 -291.854 -168.204 -240.875 -24.3914C-210.946 103.624 -21.7013 232.147 29.637 362.968" stroke="url(#paint42_angular_211_2)" stroke-opacity="0.4" stroke-width="3"/>
<path d="M-323.987 -300.942C-297.872 -233.477 -291.272 -173.099 -244.363 -27.7325C-218.134 100.607 -34.2788 235.361 12.2217 368.158" stroke="url(#paint43_angular_211_2)" stroke-opacity="0.4" stroke-width="3"/>
<path d="M-104.6 -491.618C-168.263 -418.094 -236.401 -375.674 -292.799 -214.087C-341.321 -97.6241 -344.748 148.138 -419.641 291.569" stroke="url(#paint44_angular_211_2)" stroke-opacity="0.4" stroke-width="3"/>
<path d="M-94.5805 -499.198C-161.413 -426.965 -231.531 -386.664 -291.962 -225.363C-342.71 -109.956 -354.977 137.869 -434.269 280.144" stroke="url(#paint45_angular_211_2)" stroke-opacity="0.4" stroke-width="3"/>
<path d="M-84.473 -506.753C-154.401 -435.925 -226.385 -397.835 -290.827 -236.892C-343.744 -122.569 -364.889 127.098 -448.509 268.101" stroke="url(#paint46_angular_211_2)" stroke-opacity="0.4" stroke-width="3"/>
<path d="M-74.2796 -514.279C-147.223 -444.971 -220.957 -409.177 -289.39 -248.667C-344.418 -135.454 -374.469 115.833 -462.345 255.447" stroke="url(#paint47_angular_211_2)" stroke-opacity="0.4" stroke-width="3"/>
<path d="M-64.002 -521.776C-139.878 -454.098 -215.242 -420.686 -287.642 -260.681C-344.725 -148.604 -383.704 104.08 -475.757 242.19" stroke="url(#paint48_angular_211_2)" stroke-opacity="0.4" stroke-width="3"/>
<path d="M-53.6408 -529.239C-132.362 -463.304 -209.234 -432.354 -285.576 -272.929C-344.658 -162.01 -392.578 91.8427 -488.729 228.335" stroke="url(#paint49_angular_211_2)" stroke-opacity="0.4" stroke-width="3"/>
<path d="M-43.1989 -536.668C-124.674 -472.583 -202.929 -444.172 -283.187 -285.401C-344.214 -175.663 -401.077 79.1295 -501.242 213.893" stroke="url(#paint50_angular_211_2)" stroke-opacity="0.4" stroke-width="3"/>
<path d="M-32.6766 -544.059C-116.81 -481.932 -196.32 -456.135 -280.466 -298.092C-343.384 -189.555 -409.187 65.9473 -513.279 198.87" stroke="url(#paint51_angular_211_2)" stroke-opacity="0.4" stroke-width="3"/>
<path d="M-22.0766 -551.412C-108.769 -491.347 -189.405 -468.235 -277.41 -310.993C-342.165 -203.675 -416.895 52.3029 -524.824 183.277" stroke="url(#paint52_angular_211_2)" stroke-opacity="0.4" stroke-width="3"/>
<path d="M-11.4008 -558.722C-100.548 -500.822 -182.178 -480.462 -274.012 -324.096C-340.551 -218.015 -424.188 38.2047 -535.86 167.122" stroke="url(#paint53_angular_211_2)" stroke-opacity="0.4" stroke-width="3"/>
<path d="M-0.650689 -565.989C-92.1474 -510.354 -174.636 -492.809 -270.266 -337.393C-338.54 -232.565 -431.054 23.6604 -546.373 150.416" stroke="url(#paint54_angular_211_2)" stroke-opacity="0.4" stroke-width="3"/>
<path d="M10.1716 -573.21C-83.5639 -519.937 -166.776 -505.269 -266.168 -350.876C-336.125 -247.316 -437.479 8.67832 -556.346 133.169" stroke="url(#paint55_angular_211_2)" stroke-opacity="0.4" stroke-width="3"/>
<path d="M21.064 -580.383C-74.7966 -529.569 -158.594 -517.832 -261.713 -364.537C-333.305 -262.257 -443.451 -6.7325 -565.764 115.391" stroke="url(#paint56_angular_211_2)" stroke-opacity="0.4" stroke-width="3"/>
<path d="M32.0247 -587.506C-65.8441 -539.243 -150.088 -530.489 -256.897 -378.367C-330.075 -277.379 -448.96 -22.5626 -574.614 97.0945" stroke="url(#paint57_angular_211_2)" stroke-opacity="0.4" stroke-width="3"/>
<path d="M43.0506 -594.577C-56.7062 -548.954 -141.255 -543.233 -251.716 -392.357C-326.434 -292.673 -453.994 -38.8031 -582.881 78.2902" stroke="url(#paint58_angular_211_2)" stroke-opacity="0.4" stroke-width="3"/>
<path d="M54.1409 -601.594C-47.3809 -558.699 -132.093 -556.054 -246.166 -406.497C-322.377 -308.127 -458.542 -55.4435 -590.551 58.991" stroke="url(#paint59_angular_211_2)" stroke-opacity="0.4" stroke-width="3"/>
<path d="M65.2926 -608.555C-37.868 -568.472 -122.601 -568.942 -240.244 -420.78C-317.904 -323.731 -462.593 -72.4741 -597.613 39.2086" stroke="url(#paint60_angular_211_2)" stroke-opacity="0.4" stroke-width="3"/>
</g>
<defs>
<filter id="filter0_f_211_2" x="-665.515" y="-616.839" width="1057.75" height="1011.67" filterUnits="userSpaceOnUse" color-interpolation-filters="sRGB">
<feFlood flood-opacity="0" result="BackgroundImageFix"/>
<feBlend mode="normal" in="SourceGraphic" in2="BackgroundImageFix" result="shape"/>
<feGaussianBlur stdDeviation="3.5" result="effect1_foregroundBlur_211_2"/>
</filter>
<radialGradient id="paint0_angular_211_2" cx="0" cy="0" r="1" gradientUnits="userSpaceOnUse" gradientTransform="translate(-240.904 -244.753) rotate(63.2746) scale(48.5109 490.505)">
<stop offset="0.416667" stop-color="#FF00C7"/>
<stop offset="1" stop-color="#FFA9FC"/>
</radialGradient>
<radialGradient id="paint1_angular_211_2" cx="0" cy="0" r="1" gradientUnits="userSpaceOnUse" gradientTransform="translate(-175.155 -204.851) rotate(46.5041) scale(79.2994 465.18)">
<stop offset="0.416667" stop-color="#FF00C7"/>
<stop offset="1" stop-color="#FFA9FC"/>
</radialGradient>
<radialGradient id="paint2_angular_211_2" cx="0" cy="0" r="1" gradientUnits="userSpaceOnUse" gradientTransform="translate(-229.58 -238.743) rotate(65.4123) scale(48.5255 490.196)">
<stop offset="0.416667" stop-color="#FF00C7"/>
<stop offset="1" stop-color="#FFA9FC"/>
</radialGradient>
<radialGradient id="paint3_angular_211_2" cx="0" cy="0" r="1" gradientUnits="userSpaceOnUse" gradientTransform="translate(-218.644 -232.601) rotate(67.5477) scale(48.5673 489.614)">
<stop offset="0.416667" stop-color="#FF00C7"/>
<stop offset="1" stop-color="#FFA9FC"/>
</radialGradient>
<radialGradient id="paint4_angular_211_2" cx="0" cy="0" r="1" gradientUnits="userSpaceOnUse" gradientTransform="translate(-208.099 -226.337) rotate(69.6782) scale(48.636 488.762)">
<stop offset="0.416667" stop-color="#FF00C7"/>
<stop offset="1" stop-color="#FFA9FC"/>
</radialGradient>
<radialGradient id="paint5_angular_211_2" cx="0" cy="0" r="1" gradientUnits="userSpaceOnUse" gradientTransform="translate(-197.946 -219.959) rotate(71.8017) scale(48.7313 487.646)">
<stop offset="0.416667" stop-color="#FF00C7"/>
<stop offset="1" stop-color="#FFA9FC"/>
</radialGradient>
<radialGradient id="paint6_angular_211_2" cx="0" cy="0" r="1" gradientUnits="userSpaceOnUse" gradientTransform="translate(-188.184 -213.478) rotate(73.9159) scale(48.8527 486.274)">
<stop offset="0.416667" stop-color="#FF00C7"/>
<stop offset="1" stop-color="#FFA9FC"/>
</radialGradient>
<radialGradient id="paint7_angular_211_2" cx="0" cy="0" r="1" gradientUnits="userSpaceOnUse" gradientTransform="translate(-178.818 -206.902) rotate(76.0186) scale(48.9997 484.656)">
<stop offset="0.416667" stop-color="#FF00C7"/>
<stop offset="1" stop-color="#FFA9FC"/>
</radialGradient>
<radialGradient id="paint8_angular_211_2" cx="0" cy="0" r="1" gradientUnits="userSpaceOnUse" gradientTransform="translate(-76.5939 -83.3944) rotate(110.282) scale(54.7977 430.809)">
<stop offset="0.416667" stop-color="#FF00C7"/>
<stop offset="1" stop-color="#FFA9FC"/>
</radialGradient>
<radialGradient id="paint9_angular_211_2" cx="0" cy="0" r="1" gradientUnits="userSpaceOnUse" gradientTransform="translate(-74.4431 -76.8614) rotate(111.947) scale(55.2101 427.449)">
<stop offset="0.416667" stop-color="#FF00C7"/>
<stop offset="1" stop-color="#FFA9FC"/>
</radialGradient>
<radialGradient id="paint10_angular_211_2" cx="0" cy="0" r="1" gradientUnits="userSpaceOnUse" gradientTransform="translate(-72.6366 -70.4267) rotate(113.587) scale(55.6226 424.139)">
<stop offset="0.416667" stop-color="#FF00C7"/>
<stop offset="1" stop-color="#FFA9FC"/>
</radialGradient>
<radialGradient id="paint11_angular_211_2" cx="0" cy="0" r="1" gradientUnits="userSpaceOnUse" gradientTransform="translate(-71.1679 -64.0994) rotate(115.203) scale(56.0337 420.887)">
<stop offset="0.416667" stop-color="#FF00C7"/>
<stop offset="1" stop-color="#FFA9FC"/>
</radialGradient>
<radialGradient id="paint12_angular_211_2" cx="0" cy="0" r="1" gradientUnits="userSpaceOnUse" gradientTransform="translate(-70.0308 -57.8887) rotate(116.796) scale(56.4422 417.702)">
<stop offset="0.416667" stop-color="#FF00C7"/>
<stop offset="1" stop-color="#FFA9FC"/>
</radialGradient>
<radialGradient id="paint13_angular_211_2" cx="0" cy="0" r="1" gradientUnits="userSpaceOnUse" gradientTransform="translate(-69.2199 -51.8039) rotate(118.366) scale(56.8468 414.592)">
<stop offset="0.416667" stop-color="#FF00C7"/>
<stop offset="1" stop-color="#FFA9FC"/>
</radialGradient>
<radialGradient id="paint14_angular_211_2" cx="0" cy="0" r="1" gradientUnits="userSpaceOnUse" gradientTransform="translate(-68.7282 -45.8538) rotate(119.914) scale(57.2462 411.563)">
<stop offset="0.416667" stop-color="#FF00C7"/>
<stop offset="1" stop-color="#FFA9FC"/>
</radialGradient>
<radialGradient id="paint15_angular_211_2" cx="0" cy="0" r="1" gradientUnits="userSpaceOnUse" gradientTransform="translate(-68.5485 -40.0471) rotate(121.441) scale(57.6393 408.621)">
<stop offset="0.416667" stop-color="#FF00C7"/>
<stop offset="1" stop-color="#FFA9FC"/>
</radialGradient>
<radialGradient id="paint16_angular_211_2" cx="0" cy="0" r="1" gradientUnits="userSpaceOnUse" gradientTransform="translate(-68.6742 -34.3925) rotate(122.948) scale(58.0248 405.771)">
<stop offset="0.416667" stop-color="#FF00C7"/>
<stop offset="1" stop-color="#FFA9FC"/>
</radialGradient>
<radialGradient id="paint17_angular_211_2" cx="0" cy="0" r="1" gradientUnits="userSpaceOnUse" gradientTransform="translate(-69.0985 -28.8987) rotate(124.435) scale(58.4016 403.019)">
<stop offset="0.416667" stop-color="#FF00C7"/>
<stop offset="1" stop-color="#FFA9FC"/>
</radialGradient>
<radialGradient id="paint18_angular_211_2" cx="0" cy="0" r="1" gradientUnits="userSpaceOnUse" gradientTransform="translate(-69.8131 -23.5741) rotate(125.903) scale(58.7687 400.368)">
<stop offset="0.416667" stop-color="#FF00C7"/>
<stop offset="1" stop-color="#FFA9FC"/>
</radialGradient>
<radialGradient id="paint19_angular_211_2" cx="0" cy="0" r="1" gradientUnits="userSpaceOnUse" gradientTransform="translate(-70.8105 -18.4267) rotate(127.353) scale(59.1251 397.823)">
<stop offset="0.416667" stop-color="#FF00C7"/>
<stop offset="1" stop-color="#FFA9FC"/>
</radialGradient>
<radialGradient id="paint20_angular_211_2" cx="0" cy="0" r="1" gradientUnits="userSpaceOnUse" gradientTransform="translate(-72.0825 -13.4648) rotate(128.786) scale(59.4697 395.386)">
<stop offset="0.416667" stop-color="#FF00C7"/>
<stop offset="1" stop-color="#FFA9FC"/>
</radialGradient>
<radialGradient id="paint21_angular_211_2" cx="0" cy="0" r="1" gradientUnits="userSpaceOnUse" gradientTransform="translate(-73.6207 -8.69628) rotate(130.203) scale(59.8017 393.06)">
<stop offset="0.416667" stop-color="#FF00C7"/>
<stop offset="1" stop-color="#FFA9FC"/>
</radialGradient>
<radialGradient id="paint22_angular_211_2" cx="0" cy="0" r="1" gradientUnits="userSpaceOnUse" gradientTransform="translate(-75.4173 -4.1292) rotate(131.605) scale(60.1201 390.848)">
<stop offset="0.416667" stop-color="#FF00C7"/>
<stop offset="1" stop-color="#FFA9FC"/>
</radialGradient>
<radialGradient id="paint23_angular_211_2" cx="0" cy="0" r="1" gradientUnits="userSpaceOnUse" gradientTransform="translate(-77.4632 0.229361) rotate(132.992) scale(60.4242 388.752)">
<stop offset="0.416667" stop-color="#FF00C7"/>
<stop offset="1" stop-color="#FFA9FC"/>
</radialGradient>
<radialGradient id="paint24_angular_211_2" cx="0" cy="0" r="1" gradientUnits="userSpaceOnUse" gradientTransform="translate(-79.7494 4.37152) rotate(134.366) scale(60.7131 386.773)">
<stop offset="0.416667" stop-color="#FF00C7"/>
<stop offset="1" stop-color="#FFA9FC"/>
</radialGradient>
<radialGradient id="paint25_angular_211_2" cx="0" cy="0" r="1" gradientUnits="userSpaceOnUse" gradientTransform="translate(-82.2673 8.29024) rotate(135.727) scale(60.9861 384.914)">
<stop offset="0.416667" stop-color="#FF00C7"/>
<stop offset="1" stop-color="#FFA9FC"/>
</radialGradient>
<radialGradient id="paint26_angular_211_2" cx="0" cy="0" r="1" gradientUnits="userSpaceOnUse" gradientTransform="translate(-85.0069 11.9784) rotate(137.077) scale(61.2425 383.174)">
<stop offset="0.416667" stop-color="#FF00C7"/>
<stop offset="1" stop-color="#FFA9FC"/>
</radialGradient>
<radialGradient id="paint27_angular_211_2" cx="0" cy="0" r="1" gradientUnits="userSpaceOnUse" gradientTransform="translate(-87.9602 15.4291) rotate(138.416) scale(61.4816 381.556)">
<stop offset="0.416667" stop-color="#FF00C7"/>
<stop offset="1" stop-color="#FFA9FC"/>
</radialGradient>
<radialGradient id="paint28_angular_211_2" cx="0" cy="0" r="1" gradientUnits="userSpaceOnUse" gradientTransform="translate(-91.116 18.6359) rotate(139.744) scale(61.703 380.061)">
<stop offset="0.416667" stop-color="#FF00C7"/>
<stop offset="1" stop-color="#FFA9FC"/>
</radialGradient>
<radialGradient id="paint29_angular_211_2" cx="0" cy="0" r="1" gradientUnits="userSpaceOnUse" gradientTransform="translate(-94.465 21.5922) rotate(141.064) scale(61.906 378.688)">
<stop offset="0.416667" stop-color="#FF00C7"/>
<stop offset="1" stop-color="#FFA9FC"/>
</radialGradient>
<radialGradient id="paint30_angular_211_2" cx="0" cy="0" r="1" gradientUnits="userSpaceOnUse" gradientTransform="translate(-97.9985 24.2916) rotate(142.376) scale(62.0902 377.439)">
<stop offset="0.416667" stop-color="#FF00C7"/>
<stop offset="1" stop-color="#FFA9FC"/>
</radialGradient>
<radialGradient id="paint31_angular_211_2" cx="0" cy="0" r="1" gradientUnits="userSpaceOnUse" gradientTransform="translate(-101.704 26.7286) rotate(143.68) scale(62.2551 376.313)">
<stop offset="0.416667" stop-color="#FF00C7"/>
<stop offset="1" stop-color="#FFA9FC"/>
</radialGradient>
<radialGradient id="paint32_angular_211_2" cx="0" cy="0" r="1" gradientUnits="userSpaceOnUse" gradientTransform="translate(-105.574 28.8968) rotate(144.978) scale(62.4003 375.312)">
<stop offset="0.416667" stop-color="#FF00C7"/>
<stop offset="1" stop-color="#FFA9FC"/>
</radialGradient>
<radialGradient id="paint33_angular_211_2" cx="0" cy="0" r="1" gradientUnits="userSpaceOnUse" gradientTransform="translate(-109.596 30.791) rotate(146.27) scale(62.5255 374.435)">
<stop offset="0.416667" stop-color="#FF00C7"/>
<stop offset="1" stop-color="#FFA9FC"/>
</radialGradient>
<radialGradient id="paint34_angular_211_2" cx="0" cy="0" r="1" gradientUnits="userSpaceOnUse" gradientTransform="translate(-113.761 32.4059) rotate(147.558) scale(62.6304 373.683)">
<stop offset="0.416667" stop-color="#FF00C7"/>
<stop offset="1" stop-color="#FFA9FC"/>
</radialGradient>
<radialGradient id="paint35_angular_211_2" cx="0" cy="0" r="1" gradientUnits="userSpaceOnUse" gradientTransform="translate(-118.058 33.7361) rotate(148.841) scale(62.7147 373.056)">
<stop offset="0.416667" stop-color="#FF00C7"/>
<stop offset="1" stop-color="#FFA9FC"/>
</radialGradient>
<radialGradient id="paint36_angular_211_2" cx="0" cy="0" r="1" gradientUnits="userSpaceOnUse" gradientTransform="translate(-122.476 34.7773) rotate(150.122) scale(62.7783 372.553)">
<stop offset="0.416667" stop-color="#FF00C7"/>
<stop offset="1" stop-color="#FFA9FC"/>
</radialGradient>
<radialGradient id="paint37_angular_211_2" cx="0" cy="0" r="1" gradientUnits="userSpaceOnUse" gradientTransform="translate(-127.004 35.5244) rotate(151.401) scale(62.821 372.176)">
<stop offset="0.416667" stop-color="#FF00C7"/>
<stop offset="1" stop-color="#FFA9FC"/>
</radialGradient>
<radialGradient id="paint38_angular_211_2" cx="0" cy="0" r="1" gradientUnits="userSpaceOnUse" gradientTransform="translate(-131.632 35.9733) rotate(152.678) scale(62.8427 371.923)">
<stop offset="0.416667" stop-color="#FF00C7"/>
<stop offset="1" stop-color="#FFA9FC"/>
</radialGradient>
<radialGradient id="paint39_angular_211_2" cx="0" cy="0" r="1" gradientUnits="userSpaceOnUse" gradientTransform="translate(-136.732 36.3067) rotate(153.955) scale(63.2696 371.794)">
<stop offset="0.416667" stop-color="#FF00C7"/>
<stop offset="1" stop-color="#FFA9FC"/>
</radialGradient>
<radialGradient id="paint40_angular_211_2" cx="0" cy="0" r="1" gradientUnits="userSpaceOnUse" gradientTransform="translate(-141.985 36.3479) rotate(155.233) scale(63.7496 371.79)">
<stop offset="0.416667" stop-color="#FF00C7"/>
<stop offset="1" stop-color="#FFA9FC"/>
</radialGradient>
<radialGradient id="paint41_angular_211_2" cx="0" cy="0" r="1" gradientUnits="userSpaceOnUse" gradientTransform="translate(-147.318 36.061) rotate(156.511) scale(64.2139 371.911)">
<stop offset="0.416667" stop-color="#FF00C7"/>
<stop offset="1" stop-color="#FFA9FC"/>
</radialGradient>
<radialGradient id="paint42_angular_211_2" cx="0" cy="0" r="1" gradientUnits="userSpaceOnUse" gradientTransform="translate(-152.72 35.4417) rotate(157.792) scale(64.6622 372.155)">
<stop offset="0.416667" stop-color="#FF00C7"/>
<stop offset="1" stop-color="#FFA9FC"/>
</radialGradient>
<radialGradient id="paint43_angular_211_2" cx="0" cy="0" r="1" gradientUnits="userSpaceOnUse" gradientTransform="translate(-158.179 34.4858) rotate(159.076) scale(65.0941 372.523)">
<stop offset="0.416667" stop-color="#FF00C7"/>
<stop offset="1" stop-color="#FFA9FC"/>
</radialGradient>
<radialGradient id="paint44_angular_211_2" cx="0" cy="0" r="1" gradientUnits="userSpaceOnUse" gradientTransform="translate(-281.933 -105.227) rotate(-165.289) scale(75.7374 418.758)">
<stop offset="0.416667" stop-color="#FF00C7"/>
<stop offset="1" stop-color="#FFA9FC"/>
</radialGradient>
<radialGradient id="paint45_angular_211_2" cx="0" cy="0" r="1" gradientUnits="userSpaceOnUse" gradientTransform="translate(-284.652 -115.472) rotate(-163.622) scale(75.9251 421.751)">
<stop offset="0.416667" stop-color="#FF00C7"/>
<stop offset="1" stop-color="#FFA9FC"/>
</radialGradient>
<radialGradient id="paint46_angular_211_2" cx="0" cy="0" r="1" gradientUnits="userSpaceOnUse" gradientTransform="translate(-287.093 -126.048) rotate(-161.93) scale(76.1038 424.776)">
<stop offset="0.416667" stop-color="#FF00C7"/>
<stop offset="1" stop-color="#FFA9FC"/>
</radialGradient>
<radialGradient id="paint47_angular_211_2" cx="0" cy="0" r="1" gradientUnits="userSpaceOnUse" gradientTransform="translate(-289.247 -136.948) rotate(-160.213) scale(76.2754 427.825)">
<stop offset="0.416667" stop-color="#FF00C7"/>
<stop offset="1" stop-color="#FFA9FC"/>
</radialGradient>
<radialGradient id="paint48_angular_211_2" cx="0" cy="0" r="1" gradientUnits="userSpaceOnUse" gradientTransform="translate(-291.105 -148.167) rotate(-158.47) scale(76.4422 430.885)">
<stop offset="0.416667" stop-color="#FF00C7"/>
<stop offset="1" stop-color="#FFA9FC"/>
</radialGradient>
<radialGradient id="paint49_angular_211_2" cx="0" cy="0" r="1" gradientUnits="userSpaceOnUse" gradientTransform="translate(-292.655 -159.699) rotate(-156.7) scale(76.6064 433.944)">
<stop offset="0.416667" stop-color="#FF00C7"/>
<stop offset="1" stop-color="#FFA9FC"/>
</radialGradient>
<radialGradient id="paint50_angular_211_2" cx="0" cy="0" r="1" gradientUnits="userSpaceOnUse" gradientTransform="translate(-293.891 -171.537) rotate(-154.904) scale(76.7702 436.989)">
<stop offset="0.416667" stop-color="#FF00C7"/>
<stop offset="1" stop-color="#FFA9FC"/>
</radialGradient>
<radialGradient id="paint51_angular_211_2" cx="0" cy="0" r="1" gradientUnits="userSpaceOnUse" gradientTransform="translate(-294.802 -183.675) rotate(-153.082) scale(76.9363 440.007)">
<stop offset="0.416667" stop-color="#FF00C7"/>
<stop offset="1" stop-color="#FFA9FC"/>
</radialGradient>
<radialGradient id="paint52_angular_211_2" cx="0" cy="0" r="1" gradientUnits="userSpaceOnUse" gradientTransform="translate(-295.38 -196.107) rotate(-151.233) scale(77.1071 442.981)">
<stop offset="0.416667" stop-color="#FF00C7"/>
<stop offset="1" stop-color="#FFA9FC"/>
</radialGradient>
<radialGradient id="paint53_angular_211_2" cx="0" cy="0" r="1" gradientUnits="userSpaceOnUse" gradientTransform="translate(-295.616 -208.824) rotate(-149.358) scale(77.2853 445.898)">
<stop offset="0.416667" stop-color="#FF00C7"/>
<stop offset="1" stop-color="#FFA9FC"/>
</radialGradient>
<radialGradient id="paint54_angular_211_2" cx="0" cy="0" r="1" gradientUnits="userSpaceOnUse" gradientTransform="translate(-295.503 -221.819) rotate(-147.458) scale(77.4733 448.741)">
<stop offset="0.416667" stop-color="#FF00C7"/>
<stop offset="1" stop-color="#FFA9FC"/>
</radialGradient>
<radialGradient id="paint55_angular_211_2" cx="0" cy="0" r="1" gradientUnits="userSpaceOnUse" gradientTransform="translate(-295.032 -235.085) rotate(-145.532) scale(77.6742 451.493)">
<stop offset="0.416667" stop-color="#FF00C7"/>
<stop offset="1" stop-color="#FFA9FC"/>
</radialGradient>
<radialGradient id="paint56_angular_211_2" cx="0" cy="0" r="1" gradientUnits="userSpaceOnUse" gradientTransform="translate(-294.197 -248.614) rotate(-143.582) scale(77.8904 454.139)">
<stop offset="0.416667" stop-color="#FF00C7"/>
<stop offset="1" stop-color="#FFA9FC"/>
</radialGradient>
<radialGradient id="paint57_angular_211_2" cx="0" cy="0" r="1" gradientUnits="userSpaceOnUse" gradientTransform="translate(-292.99 -262.397) rotate(-141.608) scale(78.1249 456.661)">
<stop offset="0.416667" stop-color="#FF00C7"/>
<stop offset="1" stop-color="#FFA9FC"/>
</radialGradient>
<radialGradient id="paint58_angular_211_2" cx="0" cy="0" r="1" gradientUnits="userSpaceOnUse" gradientTransform="translate(-291.406 -276.426) rotate(-139.611) scale(78.3803 459.043)">
<stop offset="0.416667" stop-color="#FF00C7"/>
<stop offset="1" stop-color="#FFA9FC"/>
</radialGradient>
<radialGradient id="paint59_angular_211_2" cx="0" cy="0" r="1" gradientUnits="userSpaceOnUse" gradientTransform="translate(-289.436 -290.693) rotate(-137.592) scale(78.6594 461.267)">
<stop offset="0.416667" stop-color="#FF00C7"/>
<stop offset="1" stop-color="#FFA9FC"/>
</radialGradient>
<radialGradient id="paint60_angular_211_2" cx="0" cy="0" r="1" gradientUnits="userSpaceOnUse" gradientTransform="translate(-287.075 -305.188) rotate(-135.553) scale(78.9649 463.318)">
<stop offset="0.416667" stop-color="#FF00C7"/>
<stop offset="1" stop-color="#FFA9FC"/>
</radialGradient>
</defs>
</svg>
