<svg width="79" height="72" viewBox="0 0 39 42" fill="none" xmlns="http://www.w3.org/2000/svg">
<path d="M18.1048 20.9124C20.7453 20.9124 23.2777 19.8635 25.1449 17.9963C27.012 16.1292 28.061 13.5968 28.061 10.9562C28.061 8.31566 27.012 5.78326 25.1449 3.91611C23.2777 2.04895 20.7453 1 18.1048 1C15.4642 1 12.9318 2.04895 11.0647 3.91611C9.19751 5.78326 8.14855 8.31566 8.14855 10.9562C8.14855 13.5968 9.19751 16.1292 11.0647 17.9963C12.9318 19.8635 15.4642 20.9124 18.1048 20.9124V20.9124Z" stroke="white" stroke-width="1.5" stroke-linecap="round" stroke-linejoin="round"/>
<path d="M32.4616 28.3597L25.4126 35.4086C25.1338 35.6874 24.875 36.2051 24.8152 36.5835L24.4369 39.2717C24.2975 40.2474 24.9745 40.9244 25.9502 40.785L28.6384 40.4067C29.0168 40.3469 29.5544 40.0881 29.8132 39.8093L36.8622 32.7603C38.0769 31.5456 38.6544 30.1319 36.8622 28.3397C35.09 26.5675 33.6763 27.145 32.4616 28.3597V28.3597Z" stroke="white" stroke-width="1.5" stroke-miterlimit="10" stroke-linecap="round" stroke-linejoin="round"/>
<path d="M31.4461 29.3752C32.0434 31.5257 33.7161 33.1984 35.8666 33.7957" stroke="white" stroke-width="1.5" stroke-miterlimit="10" stroke-linecap="round" stroke-linejoin="round"/>
<path d="M1 40.8248C1 33.1187 8.66628 26.8861 18.1048 26.8861C20.1757 26.8861 22.1669 27.1848 24.0187 27.7424" stroke="white" stroke-width="1.5" stroke-linecap="round" stroke-linejoin="round"/>
</svg>
