<svg width="77" height="77" viewBox="0 0 42 47" fill="none" xmlns="http://www.w3.org/2000/svg">
<path d="M34.3333 38.3701H32.6444C30.8667 38.3701 29.1778 39.0572 27.9333 40.2984L24.1333 44.0443C22.4 45.751 19.5778 45.751 17.8444 44.0443L14.0444 40.2984C12.8 39.0572 11.0889 38.3701 9.33333 38.3701H7.66667C3.97778 38.3701 1 35.4221 1 31.7871V7.58298C1 3.94794 3.97778 1 7.66667 1H34.3333C38.0222 1 41 3.94794 41 7.58298V31.7649C41 35.4 38.0222 38.3701 34.3333 38.3701Z" stroke="white" stroke-width="1.5" stroke-miterlimit="10" stroke-linecap="round" stroke-linejoin="round"/>
<path d="M21.1515 16.3851H20.8269C19.7335 16.3466 18.6973 15.8605 17.938 15.0299C17.1787 14.1993 16.7559 13.0895 16.7593 11.9358C16.7593 9.47157 18.6417 7.48649 20.9784 7.48649C23.3151 7.48649 25.1974 9.49439 25.1974 11.9358C25.219 14.3544 23.4232 16.3167 21.1515 16.3851V16.3851ZM15.0501 23.2531C12.1725 25.2838 12.1725 28.5922 15.0501 30.623C18.3171 32.9275 23.6829 32.9275 26.9499 30.623C29.8275 28.5922 29.8275 25.2838 26.9499 23.2531C23.6829 20.9714 18.3388 20.9714 15.0501 23.2531Z" stroke="white" stroke-width="1.5" stroke-linecap="round" stroke-linejoin="round"/>
</svg>
