<svg width="79" height="52" viewBox="0 0 79 52" fill="none" xmlns="http://www.w3.org/2000/svg">
<path d="M0.0880001 15.452C0.0880001 18.944 1.132 21.68 3.22 23.624C5.308 25.532 7.936 26.504 11.14 26.504C14.344 26.504 16.972 25.532 19.06 23.624C21.148 21.68 22.192 18.944 22.192 15.452V0.799998H15.712V15.776C15.712 18.98 13.84 20.528 11.14 20.528C8.512 20.528 6.568 18.98 6.568 15.776V0.799998H0.0880001V15.452ZM33.3329 26V0.799998H26.8529V26H33.3329ZM27.2989 40.452C27.2989 43.944 28.3429 46.68 30.4309 48.624C32.5189 50.532 35.1469 51.504 38.3509 51.504C41.5549 51.504 44.1829 50.532 46.2709 48.624C48.3589 46.68 49.4029 43.944 49.4029 40.452V25.8H42.9229V40.776C42.9229 43.98 41.0509 45.528 38.3509 45.528C35.7229 45.528 33.7789 43.98 33.7789 40.776V25.8H27.2989V40.452ZM58.8158 51L64.6838 42.612L70.5878 51H78.1838L68.5358 37.428L76.7438 25.8H69.2918L64.7918 32.28L60.3278 25.8H52.7678L60.9758 37.464L51.3278 51H58.8158Z" fill="white"/>
</svg>
