<svg width="51" height="57" viewBox="0 0 51 57" fill="none" xmlns="http://www.w3.org/2000/svg">
<path d="M6.892 26V10.628L11.536 17.396H15.1L19.6 10.628V26H26.044V0.799998H19.636L13.228 10.484L6.856 0.799998H0.412V26H6.892ZM50.2973 26V20.312H37.3373V15.38H47.4173V9.908H37.3373V6.488H50.0093V0.799998H30.8573V26H50.2973ZM6.784 56V42.068L17.944 56H23.308V30.8H16.972V44.66L5.956 30.8H0.412V56H6.784ZM27.7911 45.452C27.7911 48.944 28.8351 51.68 30.9231 53.624C33.0111 55.532 35.6391 56.504 38.8431 56.504C42.0471 56.504 44.6751 55.532 46.7631 53.624C48.8511 51.68 49.8951 48.944 49.8951 45.452V30.8H43.4151V45.776C43.4151 48.98 41.5431 50.528 38.8431 50.528C36.2151 50.528 34.2711 48.98 34.2711 45.776V30.8H27.7911V45.452Z" fill="white"/>
</svg>
