<svg width="1175" height="1024" viewBox="0 0 1175 1024" fill="none" xmlns="http://www.w3.org/2000/svg">
<g filter="url(#filter0_f_52_509)">
<path d="M2013.89 845.185C2000.16 1008.98 1962.11 1189.81 1656.18 1329.08C1317.78 1483.13 1246.67 1835.6 1043.76 2043.47" stroke="url(#paint0_angular_52_509)" stroke-opacity="0.5" stroke-width="3"/>
<path d="M958.062 1992.37C992.587 1823.84 956.495 1690.46 1193.39 1486.63C1347.96 1353.63 1769.33 1090.63 1928.52 863.538" stroke="url(#paint1_angular_52_509)" stroke-opacity="0.5" stroke-width="3"/>
<path d="M2007.84 852.337C1987.97 1014.84 1943.81 1192.77 1635.76 1324.66C1295.75 1469.35 1213.46 1821.04 1004.94 2023.12" stroke="url(#paint2_angular_52_509)" stroke-opacity="0.5" stroke-width="3"/>
<path d="M2001.89 859.605C1975.97 1020.59 1925.85 1195.43 1615.85 1319.9C1274.49 1455.25 1181.04 1805.82 967.086 2001.93" stroke="url(#paint3_angular_52_509)" stroke-opacity="0.5" stroke-width="3"/>
<path d="M1996.05 866.992C1964.16 1026.25 1908.23 1197.79 1596.46 1314.83C1254.02 1440.85 1149.41 1789.94 930.211 1979.94" stroke="url(#paint4_angular_52_509)" stroke-opacity="0.5" stroke-width="3"/>
<path d="M1990.3 874.501C1952.53 1031.81 1890.96 1199.87 1577.6 1309.46C1234.32 1426.18 1118.6 1773.43 894.339 1957.16" stroke="url(#paint5_angular_52_509)" stroke-opacity="0.5" stroke-width="3"/>
<path d="M1984.65 882.135C1941.1 1037.29 1874.06 1201.67 1559.28 1303.8C1215.41 1411.26 1088.63 1756.32 859.491 1933.63" stroke="url(#paint6_angular_52_509)" stroke-opacity="0.5" stroke-width="3"/>
<path d="M1979.09 889.897C1929.88 1042.69 1857.53 1203.21 1541.5 1297.88C1197.3 1396.11 1059.5 1738.63 825.687 1909.38" stroke="url(#paint7_angular_52_509)" stroke-opacity="0.5" stroke-width="3"/>
<path d="M1973.62 897.789C1918.85 1048.02 1841.38 1204.5 1524.27 1291.7C1179.98 1380.76 1031.24 1720.39 792.946 1884.44" stroke="url(#paint8_angular_52_509)" stroke-opacity="0.5" stroke-width="3"/>
<path d="M1968.23 905.815C1908.02 1053.29 1825.61 1205.56 1507.6 1285.29C1163.47 1365.24 1003.86 1701.61 761.286 1858.83" stroke="url(#paint9_angular_52_509)" stroke-opacity="0.5" stroke-width="3"/>
<path d="M1962.92 913.976C1897.4 1058.5 1810.25 1206.4 1491.5 1278.66C1147.76 1349.56 977.366 1682.33 730.723 1832.6" stroke="url(#paint10_angular_52_509)" stroke-opacity="0.5" stroke-width="3"/>
<path d="M1957.68 922.275C1886.99 1063.66 1795.28 1207.04 1475.96 1271.83C1132.85 1333.75 951.78 1662.56 701.275 1805.76" stroke="url(#paint11_angular_52_509)" stroke-opacity="0.5" stroke-width="3"/>
<path d="M1952.52 930.714C1876.79 1068.77 1780.73 1207.48 1461 1264.82C1118.75 1317.83 927.112 1642.34 672.957 1778.36" stroke="url(#paint12_angular_52_509)" stroke-opacity="0.5" stroke-width="3"/>
<path d="M1947.42 939.295C1866.8 1073.85 1766.59 1207.75 1446.63 1257.64C1105.46 1301.83 903.373 1621.7 645.782 1750.42" stroke="url(#paint13_angular_52_509)" stroke-opacity="0.5" stroke-width="3"/>
<path d="M1942.39 948.022C1857.03 1078.9 1752.88 1207.86 1432.84 1250.32C1092.97 1285.77 880.573 1600.65 619.764 1721.98" stroke="url(#paint14_angular_52_509)" stroke-opacity="0.5" stroke-width="3"/>
<path d="M1937.41 956.894C1847.47 1083.92 1739.59 1207.82 1419.64 1242.88C1081.29 1269.67 858.723 1579.22 594.916 1693.07" stroke="url(#paint15_angular_52_509)" stroke-opacity="0.5" stroke-width="3"/>
<path d="M1932.49 965.915C1838.13 1088.94 1726.73 1207.65 1407.02 1235.32C1070.41 1253.57 837.831 1557.45 571.248 1663.72" stroke="url(#paint16_angular_52_509)" stroke-opacity="0.5" stroke-width="3"/>
<path d="M1927.62 975.085C1829 1093.94 1714.3 1207.36 1395.01 1227.68C1060.34 1237.47 817.907 1535.36 548.771 1633.97" stroke="url(#paint17_angular_52_509)" stroke-opacity="0.5" stroke-width="3"/>
<path d="M1922.8 984.407C1820.1 1098.95 1702.32 1206.97 1383.59 1219.96C1051.06 1221.42 798.957 1512.97 527.496 1603.85" stroke="url(#paint18_angular_52_509)" stroke-opacity="0.5" stroke-width="3"/>
<path d="M1918.01 993.882C1811.41 1103.96 1690.77 1206.5 1372.77 1212.19C1042.58 1205.42 780.988 1490.32 507.429 1573.4" stroke="url(#paint19_angular_52_509)" stroke-opacity="0.5" stroke-width="3"/>
<path d="M1913.27 1003.51C1802.94 1108.99 1679.67 1205.95 1362.54 1204.39C1034.88 1189.5 764.007 1467.44 488.581 1542.66" stroke="url(#paint20_angular_52_509)" stroke-opacity="0.5" stroke-width="3"/>
<path d="M1908.55 1013.29C1794.68 1114.05 1669.01 1205.36 1352.91 1196.57C1027.98 1173.69 748.016 1444.34 470.952 1511.64" stroke="url(#paint21_angular_52_509)" stroke-opacity="0.5" stroke-width="3"/>
<path d="M1903.86 1023.23C1786.65 1119.13 1658.8 1204.72 1343.89 1188.75C1021.85 1158.01 733.022 1421.07 454.553 1480.4" stroke="url(#paint22_angular_52_509)" stroke-opacity="0.5" stroke-width="3"/>
<path d="M1862.16 1119.83C1723.91 1167.55 1586.94 1199.99 1289.14 1121.64C1000.5 1026.38 643.178 1208.29 362.6 1194.81" stroke="url(#paint23_angular_52_509)" stroke-opacity="0.5" stroke-width="3"/>
<path d="M1857.5 1131.36C1717.97 1173.37 1581.14 1199.87 1285.93 1114.88C1001.7 1013.21 638.191 1184.8 358.55 1163.24" stroke="url(#paint24_angular_52_509)" stroke-opacity="0.5" stroke-width="3"/>
<path d="M1852.81 1143.05C1712.22 1179.3 1575.76 1199.88 1283.28 1108.33C1003.58 1000.4 634.192 1161.46 355.719 1131.83" stroke="url(#paint25_angular_52_509)" stroke-opacity="0.5" stroke-width="3"/>
<path d="M1848.1 1154.9C1706.66 1185.35 1570.81 1200.05 1281.17 1102C1006.12 987.974 631.174 1138.28 354.1 1100.62" stroke="url(#paint26_angular_52_509)" stroke-opacity="0.5" stroke-width="3"/>
<path d="M1843.35 1166.91C1701.3 1191.52 1566.26 1200.38 1279.6 1095.91C1009.31 975.953 629.132 1115.29 353.685 1069.64" stroke="url(#paint27_angular_52_509)" stroke-opacity="0.5" stroke-width="3"/>
<path d="M1838.57 1179.07C1696.11 1197.84 1562.13 1200.9 1278.56 1090.08C1013.13 964.355 628.056 1092.53 354.466 1038.93" stroke="url(#paint28_angular_52_509)" stroke-opacity="0.5" stroke-width="3"/>
<path d="M1833.74 1191.39C1691.11 1204.29 1558.39 1201.62 1278.04 1084.53C1017.57 953.197 627.939 1070.02 356.431 1008.52" stroke="url(#paint29_angular_52_509)" stroke-opacity="0.5" stroke-width="3"/>
<path d="M1828.87 1203.86C1686.28 1210.89 1555.04 1202.55 1278.03 1079.26C1022.61 942.498 628.772 1047.78 359.571 978.445" stroke="url(#paint30_angular_52_509)" stroke-opacity="0.5" stroke-width="3"/>
<path d="M1823.95 1216.49C1681.62 1217.65 1552.08 1203.71 1278.52 1074.3C1028.24 932.276 630.546 1025.86 363.873 948.742" stroke="url(#paint31_angular_52_509)" stroke-opacity="0.5" stroke-width="3"/>
<path d="M1818.98 1229.27C1677.13 1224.57 1549.49 1205.11 1279.51 1069.67C1034.44 922.545 633.249 1004.26 369.325 919.443" stroke="url(#paint32_angular_52_509)" stroke-opacity="0.5" stroke-width="3"/>
<path d="M1813.95 1242.2C1672.79 1231.66 1547.26 1206.76 1280.97 1065.38C1041.19 913.324 636.871 983.022 375.912 890.582" stroke="url(#paint33_angular_52_509)" stroke-opacity="0.5" stroke-width="3"/>
<path d="M1808.85 1255.28C1668.62 1238.93 1545.4 1208.69 1282.91 1061.44C1048.49 904.627 641.399 962.172 383.62 862.19" stroke="url(#paint34_angular_52_509)" stroke-opacity="0.5" stroke-width="3"/>
<path d="M1803.69 1268.51C1664.59 1246.37 1543.88 1210.9 1285.3 1057.87C1056.3 896.47 646.82 941.734 392.433 834.301" stroke="url(#paint35_angular_52_509)" stroke-opacity="0.5" stroke-width="3"/>
<path d="M1798.46 1281.88C1660.7 1254 1542.7 1213.4 1288.13 1054.68C1064.62 888.867 653.123 921.735 402.336 806.946" stroke="url(#paint36_angular_52_509)" stroke-opacity="0.5" stroke-width="3"/>
<path d="M1793.15 1295.4C1656.95 1261.82 1541.85 1216.21 1291.4 1051.9C1073.42 881.834 660.29 902.199 413.309 780.157" stroke="url(#paint37_angular_52_509)" stroke-opacity="0.5" stroke-width="3"/>
<path d="M1787.76 1309.06C1653.34 1269.84 1541.31 1219.35 1295.08 1049.52C1082.68 875.383 668.308 883.153 425.335 753.965" stroke="url(#paint38_angular_52_509)" stroke-opacity="0.5" stroke-width="3"/>
<path d="M1782.29 1322.86C1649.85 1278.06 1541.07 1222.81 1299.18 1047.57C1092.39 869.527 677.162 864.62 438.396 728.401" stroke="url(#paint39_angular_52_509)" stroke-opacity="0.5" stroke-width="3"/>
<path d="M1776.73 1336.79C1646.47 1286.49 1541.13 1226.62 1303.66 1046.07C1102.53 864.279 686.833 846.624 452.469 703.493" stroke="url(#paint40_angular_52_509)" stroke-opacity="0.5" stroke-width="3"/>
<path d="M1771.08 1350.87C1643.21 1295.14 1541.46 1230.79 1308.52 1045.01C1113.08 859.652 697.306 829.191 467.535 679.273" stroke="url(#paint41_angular_52_509)" stroke-opacity="0.5" stroke-width="3"/>
<path d="M1765.34 1365.07C1640.06 1304 1542.06 1235.32 1313.74 1044.42C1124.02 855.655 708.564 812.342 483.573 655.769" stroke="url(#paint42_angular_52_509)" stroke-opacity="0.5" stroke-width="3"/>
<path d="M1759.49 1379.4C1637 1313.08 1542.92 1240.23 1319.3 1044.3C1135.32 852.301 720.586 796.102 500.559 633.009" stroke="url(#paint43_angular_52_509)" stroke-opacity="0.5" stroke-width="3"/>
<path d="M1753.55 1393.86C1634.03 1322.39 1544.01 1245.53 1325.2 1044.67C1146.98 849.599 733.356 780.491 518.471 611.02" stroke="url(#paint44_angular_52_509)" stroke-opacity="0.5" stroke-width="3"/>
<path d="M1747.5 1408.45C1631.14 1331.93 1545.33 1251.22 1331.42 1045.54C1158.96 847.557 746.852 765.531 537.283 589.829" stroke="url(#paint45_angular_52_509)" stroke-opacity="0.5" stroke-width="3"/>
<path d="M1741.34 1423.15C1628.33 1341.71 1546.86 1257.32 1337.93 1046.92C1171.24 846.187 761.055 751.245 556.972 569.464" stroke="url(#paint46_angular_52_509)" stroke-opacity="0.5" stroke-width="3"/>
<path d="M1735.06 1437.97C1625.59 1351.72 1548.59 1263.83 1344.72 1048.82C1183.82 845.495 775.944 737.652 577.512 549.948" stroke="url(#paint47_angular_52_509)" stroke-opacity="0.5" stroke-width="3"/>
<path d="M1728.68 1452.91C1622.91 1361.97 1550.51 1270.77 1351.79 1051.24C1196.65 845.489 791.497 724.773 598.877 531.308" stroke="url(#paint48_angular_52_509)" stroke-opacity="0.5" stroke-width="3"/>
<path d="M1722.17 1467.96C1620.28 1372.47 1552.59 1278.13 1359.1 1054.2C1209.73 846.177 807.695 712.627 621.041 513.566" stroke="url(#paint49_angular_52_509)" stroke-opacity="0.5" stroke-width="3"/>
<path d="M1715.54 1483.12C1617.69 1383.22 1554.82 1285.93 1366.64 1057.71C1223.04 847.564 824.512 701.232 643.974 496.747" stroke="url(#paint50_angular_52_509)" stroke-opacity="0.5" stroke-width="3"/>
<path d="M1708.79 1498.38C1615.13 1394.21 1557.19 1294.18 1374.39 1061.77C1236.54 849.656 841.927 690.607 667.65 480.872" stroke="url(#paint51_angular_52_509)" stroke-opacity="0.5" stroke-width="3"/>
<path d="M1701.91 1513.75C1612.61 1405.46 1559.69 1302.88 1382.35 1066.39C1250.22 852.459 859.918 680.769 692.041 465.965" stroke="url(#paint52_angular_52_509)" stroke-opacity="0.5" stroke-width="3"/>
<path d="M1694.89 1529.21C1610.1 1416.97 1562.29 1312.03 1390.48 1071.57C1264.06 855.976 878.456 671.735 717.115 452.044" stroke="url(#paint53_angular_52_509)" stroke-opacity="0.5" stroke-width="3"/>
<path d="M1687.75 1544.76C1607.61 1428.72 1564.97 1321.64 1398.77 1077.33C1278.03 860.212 897.523 663.522 742.844 439.131" stroke="url(#paint54_angular_52_509)" stroke-opacity="0.5" stroke-width="3"/>
<path d="M1680.47 1560.41C1605.12 1440.74 1567.74 1331.71 1407.21 1083.67C1292.12 865.169 917.092 656.144 769.2 427.245" stroke="url(#paint55_angular_52_509)" stroke-opacity="0.5" stroke-width="3"/>
<path d="M1673.05 1576.14C1602.62 1453.01 1570.55 1342.26 1415.76 1090.59C1306.3 870.85 937.136 649.617 796.146 416.403" stroke="url(#paint56_angular_52_509)" stroke-opacity="0.5" stroke-width="3"/>
<path d="M1665.49 1591.96C1600.1 1465.55 1573.41 1353.28 1424.43 1098.1C1320.54 877.256 957.632 643.953 823.657 406.624" stroke="url(#paint57_angular_52_509)" stroke-opacity="0.5" stroke-width="3"/>
<path d="M1657.79 1607.85C1597.57 1478.35 1576.3 1364.77 1433.18 1106.2C1334.84 884.391 978.554 639.169 851.698 397.924" stroke="url(#paint58_angular_52_509)" stroke-opacity="0.5" stroke-width="3"/>
<path d="M1649.94 1623.82C1595 1491.4 1579.19 1376.74 1441.99 1114.9C1349.16 892.252 999.874 635.273 880.237 390.318" stroke="url(#paint59_angular_52_509)" stroke-opacity="0.5" stroke-width="3"/>
<path d="M1641.95 1639.86C1592.38 1504.72 1582.07 1389.19 1450.86 1124.19C1363.49 900.84 1021.57 632.28 909.242 383.822" stroke="url(#paint60_angular_52_509)" stroke-opacity="0.5" stroke-width="3"/>
<path d="M1633.81 1655.96C1589.72 1518.3 1584.92 1402.12 1459.76 1134.09C1377.8 910.155 1043.61 630.2 938.68 378.449" stroke="url(#paint61_angular_52_509)" stroke-opacity="0.5" stroke-width="3"/>
<path d="M1625.52 1672.13C1587 1532.14 1587.73 1415.53 1468.67 1144.58C1392.07 920.195 1065.96 629.044 968.517 374.211" stroke="url(#paint62_angular_52_509)" stroke-opacity="0.5" stroke-width="3"/>
<path d="M1617.08 1688.35C1584.22 1546.24 1590.48 1429.43 1477.57 1155.68C1406.28 930.957 1088.61 628.82 998.721 371.122" stroke="url(#paint63_angular_52_509)" stroke-opacity="0.5" stroke-width="3"/>
<path d="M1608.49 1704.63C1581.36 1560.6 1593.16 1443.8 1486.44 1167.39C1420.41 942.44 1111.53 629.538 1029.26 369.191" stroke="url(#paint64_angular_52_509)" stroke-opacity="0.5" stroke-width="3"/>
<path d="M1599.74 1720.96C1578.41 1575.22 1595.74 1458.66 1495.27 1179.69C1434.44 954.64 1134.68 631.205 1060.09 368.429" stroke="url(#paint65_angular_52_509)" stroke-opacity="0.5" stroke-width="3"/>
<path d="M1590.83 1737.33C1575.37 1590.09 1598.2 1473.99 1504.04 1192.6C1448.34 967.552 1158.04 633.83 1091.19 368.844" stroke="url(#paint66_angular_52_509)" stroke-opacity="0.5" stroke-width="3"/>
<path d="M1581.77 1753.74C1572.23 1605.22 1600.54 1489.8 1512.72 1206.11C1462.1 981.173 1181.58 637.417 1122.52 370.444" stroke="url(#paint67_angular_52_509)" stroke-opacity="0.5" stroke-width="3"/>
<path d="M1572.55 1770.19C1568.98 1620.59 1602.74 1506.08 1521.3 1220.22C1475.69 995.497 1205.27 641.972 1154.04 373.238" stroke="url(#paint68_angular_52_509)" stroke-opacity="0.5" stroke-width="3"/>
<path d="M1342.37 2115.72C1461.04 1995.04 1587.68 1946.29 1646.24 1645.24C1689.8 1443.43 1688.04 962.517 1799.33 709.083" stroke="url(#paint69_angular_52_509)" stroke-opacity="0.5" stroke-width="3"/>
<path d="M1329.72 2131.8C1453.41 2014.87 1582.86 1971.15 1648.18 1670.88C1695.2 1470.78 1708 988.135 1826.39 737.851" stroke="url(#paint70_angular_52_509)" stroke-opacity="0.5" stroke-width="3"/>
<path d="M1316.93 2147.81C1445.51 2034.82 1577.57 1996.26 1649.64 1696.92C1700.05 1498.56 1727.48 1014.63 1852.87 767.698" stroke="url(#paint71_angular_52_509)" stroke-opacity="0.5" stroke-width="3"/>
<path d="M1303.99 2163.74C1437.33 2054.9 1571.81 2021.62 1650.62 1723.35C1704.35 1526.76 1746.46 1041.97 1878.74 798.606" stroke="url(#paint72_angular_52_509)" stroke-opacity="0.5" stroke-width="3"/>
<path d="M1290.92 2179.61C1428.87 2075.09 1565.56 2047.21 1651.09 1750.15C1708.08 1555.37 1764.91 1070.17 1903.96 830.559" stroke="url(#paint73_angular_52_509)" stroke-opacity="0.5" stroke-width="3"/>
</g>
<defs>
<filter id="filter0_f_52_509" x="346.389" y="360.972" width="1676" height="1826.81" filterUnits="userSpaceOnUse" color-interpolation-filters="sRGB">
<feFlood flood-opacity="0" result="BackgroundImageFix"/>
<feBlend mode="normal" in="SourceGraphic" in2="BackgroundImageFix" result="shape"/>
<feGaussianBlur stdDeviation="3.5" result="effect1_foregroundBlur_52_509"/>
</filter>
<radialGradient id="paint0_angular_52_509" cx="0" cy="0" r="1" gradientUnits="userSpaceOnUse" gradientTransform="translate(1528.83 1444.33) rotate(-133.982) scale(94.2737 765.098)">
<stop offset="0.416667" stop-color="#FF00C7"/>
<stop offset="1" stop-color="#FFA9FC"/>
</radialGradient>
<radialGradient id="paint1_angular_52_509" cx="0" cy="0" r="1" gradientUnits="userSpaceOnUse" gradientTransform="translate(1395.06 1397.32) rotate(-147.579) scale(151.807 736.586)">
<stop offset="0.416667" stop-color="#FF00C7"/>
<stop offset="1" stop-color="#FFA9FC"/>
</radialGradient>
<radialGradient id="paint2_angular_52_509" cx="0" cy="0" r="1" gradientUnits="userSpaceOnUse" gradientTransform="translate(1506.39 1437.73) rotate(-132.266) scale(94.2788 764.805)">
<stop offset="0.416667" stop-color="#FF00C7"/>
<stop offset="1" stop-color="#FFA9FC"/>
</radialGradient>
<radialGradient id="paint3_angular_52_509" cx="0" cy="0" r="1" gradientUnits="userSpaceOnUse" gradientTransform="translate(1484.49 1430.77) rotate(-130.55) scale(94.2901 764.463)">
<stop offset="0.416667" stop-color="#FF00C7"/>
<stop offset="1" stop-color="#FFA9FC"/>
</radialGradient>
<radialGradient id="paint4_angular_52_509" cx="0" cy="0" r="1" gradientUnits="userSpaceOnUse" gradientTransform="translate(1463.13 1423.46) rotate(-128.834) scale(94.3075 764.071)">
<stop offset="0.416667" stop-color="#FF00C7"/>
<stop offset="1" stop-color="#FFA9FC"/>
</radialGradient>
<radialGradient id="paint5_angular_52_509" cx="0" cy="0" r="1" gradientUnits="userSpaceOnUse" gradientTransform="translate(1442.32 1415.83) rotate(-127.12) scale(94.331 763.63)">
<stop offset="0.416667" stop-color="#FF00C7"/>
<stop offset="1" stop-color="#FFA9FC"/>
</radialGradient>
<radialGradient id="paint6_angular_52_509" cx="0" cy="0" r="1" gradientUnits="userSpaceOnUse" gradientTransform="translate(1422.07 1407.88) rotate(-125.406) scale(94.3605 763.14)">
<stop offset="0.416667" stop-color="#FF00C7"/>
<stop offset="1" stop-color="#FFA9FC"/>
</radialGradient>
<radialGradient id="paint7_angular_52_509" cx="0" cy="0" r="1" gradientUnits="userSpaceOnUse" gradientTransform="translate(1402.39 1399.64) rotate(-123.693) scale(94.3958 762.604)">
<stop offset="0.416667" stop-color="#FF00C7"/>
<stop offset="1" stop-color="#FFA9FC"/>
</radialGradient>
<radialGradient id="paint8_angular_52_509" cx="0" cy="0" r="1" gradientUnits="userSpaceOnUse" gradientTransform="translate(1383.28 1391.11) rotate(-121.982) scale(94.437 762.02)">
<stop offset="0.416667" stop-color="#FF00C7"/>
<stop offset="1" stop-color="#FFA9FC"/>
</radialGradient>
<radialGradient id="paint9_angular_52_509" cx="0" cy="0" r="1" gradientUnits="userSpaceOnUse" gradientTransform="translate(1364.76 1382.32) rotate(-120.272) scale(94.4837 761.392)">
<stop offset="0.416667" stop-color="#FF00C7"/>
<stop offset="1" stop-color="#FFA9FC"/>
</radialGradient>
<radialGradient id="paint10_angular_52_509" cx="0" cy="0" r="1" gradientUnits="userSpaceOnUse" gradientTransform="translate(1346.82 1373.29) rotate(-118.563) scale(94.5361 760.721)">
<stop offset="0.416667" stop-color="#FF00C7"/>
<stop offset="1" stop-color="#FFA9FC"/>
</radialGradient>
<radialGradient id="paint11_angular_52_509" cx="0" cy="0" r="1" gradientUnits="userSpaceOnUse" gradientTransform="translate(1329.48 1364.02) rotate(-116.857) scale(94.5936 760.007)">
<stop offset="0.416667" stop-color="#FF00C7"/>
<stop offset="1" stop-color="#FFA9FC"/>
</radialGradient>
<radialGradient id="paint12_angular_52_509" cx="0" cy="0" r="1" gradientUnits="userSpaceOnUse" gradientTransform="translate(1312.74 1354.54) rotate(-115.153) scale(94.6564 759.253)">
<stop offset="0.416667" stop-color="#FF00C7"/>
<stop offset="1" stop-color="#FFA9FC"/>
</radialGradient>
<radialGradient id="paint13_angular_52_509" cx="0" cy="0" r="1" gradientUnits="userSpaceOnUse" gradientTransform="translate(1296.6 1344.86) rotate(-113.451) scale(94.724 758.461)">
<stop offset="0.416667" stop-color="#FF00C7"/>
<stop offset="1" stop-color="#FFA9FC"/>
</radialGradient>
<radialGradient id="paint14_angular_52_509" cx="0" cy="0" r="1" gradientUnits="userSpaceOnUse" gradientTransform="translate(1281.08 1335) rotate(-111.751) scale(94.7963 757.633)">
<stop offset="0.416667" stop-color="#FF00C7"/>
<stop offset="1" stop-color="#FFA9FC"/>
</radialGradient>
<radialGradient id="paint15_angular_52_509" cx="0" cy="0" r="1" gradientUnits="userSpaceOnUse" gradientTransform="translate(1266.16 1324.98) rotate(-110.054) scale(94.8731 756.77)">
<stop offset="0.416667" stop-color="#FF00C7"/>
<stop offset="1" stop-color="#FFA9FC"/>
</radialGradient>
<radialGradient id="paint16_angular_52_509" cx="0" cy="0" r="1" gradientUnits="userSpaceOnUse" gradientTransform="translate(1251.87 1314.82) rotate(-108.36) scale(94.954 755.875)">
<stop offset="0.416667" stop-color="#FF00C7"/>
<stop offset="1" stop-color="#FFA9FC"/>
</radialGradient>
<radialGradient id="paint17_angular_52_509" cx="0" cy="0" r="1" gradientUnits="userSpaceOnUse" gradientTransform="translate(1238.2 1304.53) rotate(-106.669) scale(95.0389 754.952)">
<stop offset="0.416667" stop-color="#FF00C7"/>
<stop offset="1" stop-color="#FFA9FC"/>
</radialGradient>
<radialGradient id="paint18_angular_52_509" cx="0" cy="0" r="1" gradientUnits="userSpaceOnUse" gradientTransform="translate(1225.15 1294.13) rotate(-104.981) scale(95.1274 754)">
<stop offset="0.416667" stop-color="#FF00C7"/>
<stop offset="1" stop-color="#FFA9FC"/>
</radialGradient>
<radialGradient id="paint19_angular_52_509" cx="0" cy="0" r="1" gradientUnits="userSpaceOnUse" gradientTransform="translate(1212.72 1283.64) rotate(-103.296) scale(95.2192 753.025)">
<stop offset="0.416667" stop-color="#FF00C7"/>
<stop offset="1" stop-color="#FFA9FC"/>
</radialGradient>
<radialGradient id="paint20_angular_52_509" cx="0" cy="0" r="1" gradientUnits="userSpaceOnUse" gradientTransform="translate(1200.92 1273.08) rotate(-101.614) scale(95.314 752.026)">
<stop offset="0.416667" stop-color="#FF00C7"/>
<stop offset="1" stop-color="#FFA9FC"/>
</radialGradient>
<radialGradient id="paint21_angular_52_509" cx="0" cy="0" r="1" gradientUnits="userSpaceOnUse" gradientTransform="translate(1189.75 1262.47) rotate(-99.935) scale(95.4115 751.01)">
<stop offset="0.416667" stop-color="#FF00C7"/>
<stop offset="1" stop-color="#FFA9FC"/>
</radialGradient>
<radialGradient id="paint22_angular_52_509" cx="0" cy="0" r="1" gradientUnits="userSpaceOnUse" gradientTransform="translate(1179.21 1251.82) rotate(-98.2598) scale(95.5114 749.976)">
<stop offset="0.416667" stop-color="#FF00C7"/>
<stop offset="1" stop-color="#FFA9FC"/>
</radialGradient>
<radialGradient id="paint23_angular_52_509" cx="0" cy="0" r="1" gradientUnits="userSpaceOnUse" gradientTransform="translate(1112.38 1157.32) rotate(-83.3428) scale(96.4614 740.379)">
<stop offset="0.416667" stop-color="#FF00C7"/>
<stop offset="1" stop-color="#FFA9FC"/>
</radialGradient>
<radialGradient id="paint24_angular_52_509" cx="0" cy="0" r="1" gradientUnits="userSpaceOnUse" gradientTransform="translate(1108.02 1147.3) rotate(-81.7032) scale(96.5663 739.33)">
<stop offset="0.416667" stop-color="#FF00C7"/>
<stop offset="1" stop-color="#FFA9FC"/>
</radialGradient>
<radialGradient id="paint25_angular_52_509" cx="0" cy="0" r="1" gradientUnits="userSpaceOnUse" gradientTransform="translate(1104.26 1137.44) rotate(-80.0671) scale(96.6697 738.293)">
<stop offset="0.416667" stop-color="#FF00C7"/>
<stop offset="1" stop-color="#FFA9FC"/>
</radialGradient>
<radialGradient id="paint26_angular_52_509" cx="0" cy="0" r="1" gradientUnits="userSpaceOnUse" gradientTransform="translate(1101.1 1127.76) rotate(-78.4344) scale(96.7714 737.273)">
<stop offset="0.416667" stop-color="#FF00C7"/>
<stop offset="1" stop-color="#FFA9FC"/>
</radialGradient>
<radialGradient id="paint27_angular_52_509" cx="0" cy="0" r="1" gradientUnits="userSpaceOnUse" gradientTransform="translate(1098.52 1118.27) rotate(-76.8051) scale(96.871 736.269)">
<stop offset="0.416667" stop-color="#FF00C7"/>
<stop offset="1" stop-color="#FFA9FC"/>
</radialGradient>
<radialGradient id="paint28_angular_52_509" cx="0" cy="0" r="1" gradientUnits="userSpaceOnUse" gradientTransform="translate(1096.52 1109) rotate(-75.1789) scale(96.9683 735.287)">
<stop offset="0.416667" stop-color="#FF00C7"/>
<stop offset="1" stop-color="#FFA9FC"/>
</radialGradient>
<radialGradient id="paint29_angular_52_509" cx="0" cy="0" r="1" gradientUnits="userSpaceOnUse" gradientTransform="translate(1095.09 1099.95) rotate(-73.5559) scale(97.0629 734.326)">
<stop offset="0.416667" stop-color="#FF00C7"/>
<stop offset="1" stop-color="#FFA9FC"/>
</radialGradient>
<radialGradient id="paint30_angular_52_509" cx="0" cy="0" r="1" gradientUnits="userSpaceOnUse" gradientTransform="translate(1094.22 1091.15) rotate(-71.936) scale(97.1545 733.39)">
<stop offset="0.416667" stop-color="#FF00C7"/>
<stop offset="1" stop-color="#FFA9FC"/>
</radialGradient>
<radialGradient id="paint31_angular_52_509" cx="0" cy="0" r="1" gradientUnits="userSpaceOnUse" gradientTransform="translate(1093.91 1082.62) rotate(-70.3189) scale(97.2428 732.48)">
<stop offset="0.416667" stop-color="#FF00C7"/>
<stop offset="1" stop-color="#FFA9FC"/>
</radialGradient>
<radialGradient id="paint32_angular_52_509" cx="0" cy="0" r="1" gradientUnits="userSpaceOnUse" gradientTransform="translate(1094.15 1074.36) rotate(-68.7047) scale(97.3275 731.598)">
<stop offset="0.416667" stop-color="#FF00C7"/>
<stop offset="1" stop-color="#FFA9FC"/>
</radialGradient>
<radialGradient id="paint33_angular_52_509" cx="0" cy="0" r="1" gradientUnits="userSpaceOnUse" gradientTransform="translate(1094.93 1066.39) rotate(-67.0932) scale(97.4084 730.747)">
<stop offset="0.416667" stop-color="#FF00C7"/>
<stop offset="1" stop-color="#FFA9FC"/>
</radialGradient>
<radialGradient id="paint34_angular_52_509" cx="0" cy="0" r="1" gradientUnits="userSpaceOnUse" gradientTransform="translate(1096.24 1058.74) rotate(-65.4842) scale(97.4853 729.927)">
<stop offset="0.416667" stop-color="#FF00C7"/>
<stop offset="1" stop-color="#FFA9FC"/>
</radialGradient>
<radialGradient id="paint35_angular_52_509" cx="0" cy="0" r="1" gradientUnits="userSpaceOnUse" gradientTransform="translate(1098.06 1051.41) rotate(-63.8775) scale(97.5578 729.141)">
<stop offset="0.416667" stop-color="#FF00C7"/>
<stop offset="1" stop-color="#FFA9FC"/>
</radialGradient>
<radialGradient id="paint36_angular_52_509" cx="0" cy="0" r="1" gradientUnits="userSpaceOnUse" gradientTransform="translate(1100.4 1044.41) rotate(-62.2732) scale(97.6258 728.391)">
<stop offset="0.416667" stop-color="#FF00C7"/>
<stop offset="1" stop-color="#FFA9FC"/>
</radialGradient>
<radialGradient id="paint37_angular_52_509" cx="0" cy="0" r="1" gradientUnits="userSpaceOnUse" gradientTransform="translate(1103.23 1037.78) rotate(-60.6709) scale(97.6891 727.676)">
<stop offset="0.416667" stop-color="#FF00C7"/>
<stop offset="1" stop-color="#FFA9FC"/>
</radialGradient>
<radialGradient id="paint38_angular_52_509" cx="0" cy="0" r="1" gradientUnits="userSpaceOnUse" gradientTransform="translate(1106.55 1031.51) rotate(-59.0706) scale(97.7474 726.999)">
<stop offset="0.416667" stop-color="#FF00C7"/>
<stop offset="1" stop-color="#FFA9FC"/>
</radialGradient>
<radialGradient id="paint39_angular_52_509" cx="0" cy="0" r="1" gradientUnits="userSpaceOnUse" gradientTransform="translate(1110.34 1025.63) rotate(-57.472) scale(97.8006 726.361)">
<stop offset="0.416667" stop-color="#FF00C7"/>
<stop offset="1" stop-color="#FFA9FC"/>
</radialGradient>
<radialGradient id="paint40_angular_52_509" cx="0" cy="0" r="1" gradientUnits="userSpaceOnUse" gradientTransform="translate(1114.6 1020.14) rotate(-55.8749) scale(97.8485 725.763)">
<stop offset="0.416667" stop-color="#FF00C7"/>
<stop offset="1" stop-color="#FFA9FC"/>
</radialGradient>
<radialGradient id="paint41_angular_52_509" cx="0" cy="0" r="1" gradientUnits="userSpaceOnUse" gradientTransform="translate(1119.31 1015.07) rotate(-54.2793) scale(97.891 725.206)">
<stop offset="0.416667" stop-color="#FF00C7"/>
<stop offset="1" stop-color="#FFA9FC"/>
</radialGradient>
<radialGradient id="paint42_angular_52_509" cx="0" cy="0" r="1" gradientUnits="userSpaceOnUse" gradientTransform="translate(1124.46 1010.42) rotate(-52.685) scale(97.9279 724.69)">
<stop offset="0.416667" stop-color="#FF00C7"/>
<stop offset="1" stop-color="#FFA9FC"/>
</radialGradient>
<radialGradient id="paint43_angular_52_509" cx="0" cy="0" r="1" gradientUnits="userSpaceOnUse" gradientTransform="translate(1130.03 1006.21) rotate(-51.0916) scale(97.9592 724.217)">
<stop offset="0.416667" stop-color="#FF00C7"/>
<stop offset="1" stop-color="#FFA9FC"/>
</radialGradient>
<radialGradient id="paint44_angular_52_509" cx="0" cy="0" r="1" gradientUnits="userSpaceOnUse" gradientTransform="translate(1136.01 1002.44) rotate(-49.4991) scale(97.9847 723.786)">
<stop offset="0.416667" stop-color="#FF00C7"/>
<stop offset="1" stop-color="#FFA9FC"/>
</radialGradient>
<radialGradient id="paint45_angular_52_509" cx="0" cy="0" r="1" gradientUnits="userSpaceOnUse" gradientTransform="translate(1142.39 999.137) rotate(-47.9073) scale(98.0044 723.399)">
<stop offset="0.416667" stop-color="#FF00C7"/>
<stop offset="1" stop-color="#FFA9FC"/>
</radialGradient>
<radialGradient id="paint46_angular_52_509" cx="0" cy="0" r="1" gradientUnits="userSpaceOnUse" gradientTransform="translate(1149.15 996.307) rotate(-46.316) scale(98.0182 723.055)">
<stop offset="0.416667" stop-color="#FF00C7"/>
<stop offset="1" stop-color="#FFA9FC"/>
</radialGradient>
<radialGradient id="paint47_angular_52_509" cx="0" cy="0" r="1" gradientUnits="userSpaceOnUse" gradientTransform="translate(1156.29 993.96) rotate(-44.7249) scale(98.026 722.755)">
<stop offset="0.416667" stop-color="#FF00C7"/>
<stop offset="1" stop-color="#FFA9FC"/>
</radialGradient>
<radialGradient id="paint48_angular_52_509" cx="0" cy="0" r="1" gradientUnits="userSpaceOnUse" gradientTransform="translate(1164.26 991.655) rotate(-43.1339) scale(98.6927 722.499)">
<stop offset="0.416667" stop-color="#FF00C7"/>
<stop offset="1" stop-color="#FFA9FC"/>
</radialGradient>
<radialGradient id="paint49_angular_52_509" cx="0" cy="0" r="1" gradientUnits="userSpaceOnUse" gradientTransform="translate(1172.69 989.805) rotate(-41.5429) scale(99.4697 722.287)">
<stop offset="0.416667" stop-color="#FF00C7"/>
<stop offset="1" stop-color="#FFA9FC"/>
</radialGradient>
<radialGradient id="paint50_angular_52_509" cx="0" cy="0" r="1" gradientUnits="userSpaceOnUse" gradientTransform="translate(1181.47 988.497) rotate(-39.9515) scale(100.25 722.118)">
<stop offset="0.416667" stop-color="#FF00C7"/>
<stop offset="1" stop-color="#FFA9FC"/>
</radialGradient>
<radialGradient id="paint51_angular_52_509" cx="0" cy="0" r="1" gradientUnits="userSpaceOnUse" gradientTransform="translate(1190.6 987.743) rotate(-38.3597) scale(101.034 721.992)">
<stop offset="0.416667" stop-color="#FF00C7"/>
<stop offset="1" stop-color="#FFA9FC"/>
</radialGradient>
<radialGradient id="paint52_angular_52_509" cx="0" cy="0" r="1" gradientUnits="userSpaceOnUse" gradientTransform="translate(1200.05 987.554) rotate(-36.7671) scale(101.821 721.91)">
<stop offset="0.416667" stop-color="#FF00C7"/>
<stop offset="1" stop-color="#FFA9FC"/>
</radialGradient>
<radialGradient id="paint53_angular_52_509" cx="0" cy="0" r="1" gradientUnits="userSpaceOnUse" gradientTransform="translate(1209.82 987.94) rotate(-35.1737) scale(102.612 721.87)">
<stop offset="0.416667" stop-color="#FF00C7"/>
<stop offset="1" stop-color="#FFA9FC"/>
</radialGradient>
<radialGradient id="paint54_angular_52_509" cx="0" cy="0" r="1" gradientUnits="userSpaceOnUse" gradientTransform="translate(1220.16 988.719) rotate(-33.5793) scale(103.752 721.871)">
<stop offset="0.416667" stop-color="#FF00C7"/>
<stop offset="1" stop-color="#FFA9FC"/>
</radialGradient>
<radialGradient id="paint55_angular_52_509" cx="0" cy="0" r="1" gradientUnits="userSpaceOnUse" gradientTransform="translate(1230.85 990.068) rotate(-31.9836) scale(104.974 721.914)">
<stop offset="0.416667" stop-color="#FF00C7"/>
<stop offset="1" stop-color="#FFA9FC"/>
</radialGradient>
<radialGradient id="paint56_angular_52_509" cx="0" cy="0" r="1" gradientUnits="userSpaceOnUse" gradientTransform="translate(1241.82 992.036) rotate(-30.3865) scale(106.208 721.996)">
<stop offset="0.416667" stop-color="#FF00C7"/>
<stop offset="1" stop-color="#FFA9FC"/>
</radialGradient>
<radialGradient id="paint57_angular_52_509" cx="0" cy="0" r="1" gradientUnits="userSpaceOnUse" gradientTransform="translate(1253.05 994.636) rotate(-28.7878) scale(107.449 722.118)">
<stop offset="0.416667" stop-color="#FF00C7"/>
<stop offset="1" stop-color="#FFA9FC"/>
</radialGradient>
<radialGradient id="paint58_angular_52_509" cx="0" cy="0" r="1" gradientUnits="userSpaceOnUse" gradientTransform="translate(1264.5 997.878) rotate(-27.1873) scale(108.693 722.278)">
<stop offset="0.416667" stop-color="#FF00C7"/>
<stop offset="1" stop-color="#FFA9FC"/>
</radialGradient>
<radialGradient id="paint59_angular_52_509" cx="0" cy="0" r="1" gradientUnits="userSpaceOnUse" gradientTransform="translate(1276.15 1001.77) rotate(-25.5849) scale(109.936 722.474)">
<stop offset="0.416667" stop-color="#FF00C7"/>
<stop offset="1" stop-color="#FFA9FC"/>
</radialGradient>
<radialGradient id="paint60_angular_52_509" cx="0" cy="0" r="1" gradientUnits="userSpaceOnUse" gradientTransform="translate(1288 1006.32) rotate(-23.9804) scale(111.178 722.706)">
<stop offset="0.416667" stop-color="#FF00C7"/>
<stop offset="1" stop-color="#FFA9FC"/>
</radialGradient>
<radialGradient id="paint61_angular_52_509" cx="0" cy="0" r="1" gradientUnits="userSpaceOnUse" gradientTransform="translate(1300.01 1011.54) rotate(-22.3736) scale(112.417 722.971)">
<stop offset="0.416667" stop-color="#FF00C7"/>
<stop offset="1" stop-color="#FFA9FC"/>
</radialGradient>
<radialGradient id="paint62_angular_52_509" cx="0" cy="0" r="1" gradientUnits="userSpaceOnUse" gradientTransform="translate(1312.16 1017.43) rotate(-20.7644) scale(113.653 723.269)">
<stop offset="0.416667" stop-color="#FF00C7"/>
<stop offset="1" stop-color="#FFA9FC"/>
</radialGradient>
<radialGradient id="paint63_angular_52_509" cx="0" cy="0" r="1" gradientUnits="userSpaceOnUse" gradientTransform="translate(1324.43 1024) rotate(-19.1527) scale(114.884 723.598)">
<stop offset="0.416667" stop-color="#FF00C7"/>
<stop offset="1" stop-color="#FFA9FC"/>
</radialGradient>
<radialGradient id="paint64_angular_52_509" cx="0" cy="0" r="1" gradientUnits="userSpaceOnUse" gradientTransform="translate(1336.8 1031.24) rotate(-17.5383) scale(116.11 723.955)">
<stop offset="0.416667" stop-color="#FF00C7"/>
<stop offset="1" stop-color="#FFA9FC"/>
</radialGradient>
<radialGradient id="paint65_angular_52_509" cx="0" cy="0" r="1" gradientUnits="userSpaceOnUse" gradientTransform="translate(1349.25 1039.18) rotate(-15.9211) scale(117.332 724.339)">
<stop offset="0.416667" stop-color="#FF00C7"/>
<stop offset="1" stop-color="#FFA9FC"/>
</radialGradient>
<radialGradient id="paint66_angular_52_509" cx="0" cy="0" r="1" gradientUnits="userSpaceOnUse" gradientTransform="translate(1361.76 1047.8) rotate(-14.3009) scale(118.549 724.749)">
<stop offset="0.416667" stop-color="#FF00C7"/>
<stop offset="1" stop-color="#FFA9FC"/>
</radialGradient>
<radialGradient id="paint67_angular_52_509" cx="0" cy="0" r="1" gradientUnits="userSpaceOnUse" gradientTransform="translate(1374.31 1057.11) rotate(-12.6777) scale(119.76 725.181)">
<stop offset="0.416667" stop-color="#FF00C7"/>
<stop offset="1" stop-color="#FFA9FC"/>
</radialGradient>
<radialGradient id="paint68_angular_52_509" cx="0" cy="0" r="1" gradientUnits="userSpaceOnUse" gradientTransform="translate(1386.87 1067.11) rotate(-11.0514) scale(120.967 725.634)">
<stop offset="0.416667" stop-color="#FF00C7"/>
<stop offset="1" stop-color="#FFA9FC"/>
</radialGradient>
<radialGradient id="paint69_angular_52_509" cx="0" cy="0" r="1" gradientUnits="userSpaceOnUse" gradientTransform="translate(1617.3 1432.99) rotate(23.8995) scale(145.77 735.58)">
<stop offset="0.416667" stop-color="#FF00C7"/>
<stop offset="1" stop-color="#FFA9FC"/>
</radialGradient>
<radialGradient id="paint70_angular_52_509" cx="0" cy="0" r="1" gradientUnits="userSpaceOnUse" gradientTransform="translate(1625.01 1457.32) rotate(25.5992) scale(146.965 735.857)">
<stop offset="0.416667" stop-color="#FF00C7"/>
<stop offset="1" stop-color="#FFA9FC"/>
</radialGradient>
<radialGradient id="paint71_angular_52_509" cx="0" cy="0" r="1" gradientUnits="userSpaceOnUse" gradientTransform="translate(1632.29 1482.22) rotate(27.3013) scale(148.166 736.098)">
<stop offset="0.416667" stop-color="#FF00C7"/>
<stop offset="1" stop-color="#FFA9FC"/>
</radialGradient>
<radialGradient id="paint72_angular_52_509" cx="0" cy="0" r="1" gradientUnits="userSpaceOnUse" gradientTransform="translate(1639.12 1507.65) rotate(29.0057) scale(149.373 736.301)">
<stop offset="0.416667" stop-color="#FF00C7"/>
<stop offset="1" stop-color="#FFA9FC"/>
</radialGradient>
<radialGradient id="paint73_angular_52_509" cx="0" cy="0" r="1" gradientUnits="userSpaceOnUse" gradientTransform="translate(1645.48 1533.62) rotate(30.7121) scale(150.587 736.464)">
<stop offset="0.416667" stop-color="#FF00C7"/>
<stop offset="1" stop-color="#FFA9FC"/>
</radialGradient>
</defs>
</svg>
